<svg width="107" height="43" viewBox="0 0 107 43" fill="none" xmlns="http://www.w3.org/2000/svg">
<rect y="0.841614" width="107" height="41.3168" rx="20.6584" fill="#1D1D1F"/>
<path d="M22.3767 19H21.4963L24.0425 12.0657H24.9093L27.4555 19H26.5752L24.503 13.1627H24.4488L22.3767 19ZM22.7017 16.2913H26.2501V17.0362H22.7017V16.2913ZM30.3911 19.1083C29.9577 19.1083 29.5751 18.9989 29.2433 18.7799C28.9114 18.5587 28.6519 18.2472 28.4645 17.8454C28.2771 17.4414 28.1835 16.964 28.1835 16.4132C28.1835 15.8669 28.2771 15.3929 28.4645 14.9911C28.6519 14.5893 28.9126 14.2789 29.2466 14.06C29.5807 13.841 29.9667 13.7316 30.4046 13.7316C30.7432 13.7316 31.0107 13.788 31.2071 13.9009C31.4057 14.0115 31.5569 14.1379 31.6608 14.2801C31.7669 14.42 31.8493 14.5351 31.9079 14.6254H31.9757V12.0657H32.7747V19H32.0028V18.2009H31.9079C31.8493 18.2957 31.7657 18.4154 31.6574 18.5598C31.549 18.702 31.3944 18.8296 31.1935 18.9424C30.9926 19.053 30.7251 19.1083 30.3911 19.1083ZM30.4994 18.3905C30.8199 18.3905 31.0908 18.307 31.312 18.14C31.5332 17.9707 31.7014 17.7371 31.8165 17.4391C31.9316 17.1389 31.9892 16.7924 31.9892 16.3996C31.9892 16.0114 31.9328 15.6717 31.8199 15.3805C31.707 15.087 31.54 14.8591 31.3188 14.6965C31.0976 14.5318 30.8245 14.4494 30.4994 14.4494C30.1608 14.4494 29.8787 14.5363 29.6529 14.7101C29.4295 14.8816 29.2613 15.1153 29.1484 15.411C29.0378 15.7044 28.9825 16.034 28.9825 16.3996C28.9825 16.7698 29.039 17.1062 29.1518 17.4086C29.267 17.7088 29.4362 17.9481 29.6597 18.1264C29.8854 18.3025 30.1653 18.3905 30.4994 18.3905ZM36.313 19.1083C35.8796 19.1083 35.497 18.9989 35.1652 18.7799C34.8333 18.5587 34.5738 18.2472 34.3864 17.8454C34.1991 17.4414 34.1054 16.964 34.1054 16.4132C34.1054 15.8669 34.1991 15.3929 34.3864 14.9911C34.5738 14.5893 34.8345 14.2789 35.1686 14.06C35.5026 13.841 35.8886 13.7316 36.3265 13.7316C36.6651 13.7316 36.9326 13.788 37.129 13.9009C37.3276 14.0115 37.4789 14.1379 37.5827 14.2801C37.6888 14.42 37.7712 14.5351 37.8299 14.6254H37.8976V12.0657H38.6966V19H37.9247V18.2009H37.8299C37.7712 18.2957 37.6877 18.4154 37.5793 18.5598C37.471 18.702 37.3163 18.8296 37.1154 18.9424C36.9145 19.053 36.6471 19.1083 36.313 19.1083ZM36.4213 18.3905C36.7419 18.3905 37.0127 18.307 37.2339 18.14C37.4552 17.9707 37.6233 17.7371 37.7384 17.4391C37.8536 17.1389 37.9111 16.7924 37.9111 16.3996C37.9111 16.0114 37.8547 15.6717 37.7418 15.3805C37.629 15.087 37.4619 14.8591 37.2407 14.6965C37.0195 14.5318 36.7464 14.4494 36.4213 14.4494C36.0827 14.4494 35.8006 14.5363 35.5749 14.7101C35.3514 14.8816 35.1832 15.1153 35.0704 15.411C34.9598 15.7044 34.9045 16.034 34.9045 16.3996C34.9045 16.7698 34.9609 17.1062 35.0737 17.4086C35.1889 17.7088 35.3582 17.9481 35.5816 18.1264C35.8074 18.3025 36.0873 18.3905 36.4213 18.3905ZM45.2145 13.7993V14.4765H42.5193V13.7993H45.2145ZM43.3048 12.5533H44.1039V17.5102C44.1039 17.7359 44.1366 17.9052 44.2021 18.0181C44.2698 18.1287 44.3556 18.2032 44.4594 18.2416C44.5655 18.2777 44.6772 18.2957 44.7946 18.2957C44.8827 18.2957 44.9549 18.2912 45.0113 18.2822C45.0678 18.2709 45.1129 18.2619 45.1468 18.2551L45.3093 18.9729C45.2551 18.9932 45.1795 19.0135 45.0824 19.0339C44.9854 19.0564 44.8623 19.0677 44.7134 19.0677C44.4876 19.0677 44.2664 19.0192 44.0497 18.9221C43.8353 18.8251 43.657 18.6772 43.5148 18.4786C43.3748 18.2799 43.3048 18.0294 43.3048 17.7269V12.5533ZM48.4734 19.1083C48.0039 19.1083 47.5919 18.9966 47.2375 18.7731C46.8854 18.5497 46.61 18.237 46.4114 17.8353C46.215 17.4335 46.1168 16.964 46.1168 16.4267C46.1168 15.885 46.215 15.4121 46.4114 15.008C46.61 14.604 46.8854 14.2902 47.2375 14.0668C47.5919 13.8433 48.0039 13.7316 48.4734 13.7316C48.9429 13.7316 49.3537 13.8433 49.7059 14.0668C50.0602 14.2902 50.3356 14.604 50.532 15.008C50.7306 15.4121 50.83 15.885 50.83 16.4267C50.83 16.964 50.7306 17.4335 50.532 17.8353C50.3356 18.237 50.0602 18.5497 49.7059 18.7731C49.3537 18.9966 48.9429 19.1083 48.4734 19.1083ZM48.4734 18.3905C48.83 18.3905 49.1235 18.2991 49.3537 18.1163C49.584 17.9334 49.7544 17.693 49.865 17.3951C49.9756 17.0971 50.0309 16.7743 50.0309 16.4267C50.0309 16.0791 49.9756 15.7552 49.865 15.455C49.7544 15.1548 49.584 14.9121 49.3537 14.727C49.1235 14.5419 48.83 14.4494 48.4734 14.4494C48.1167 14.4494 47.8233 14.5419 47.5931 14.727C47.3628 14.9121 47.1924 15.1548 47.0818 15.455C46.9712 15.7552 46.9159 16.0791 46.9159 16.4267C46.9159 16.7743 46.9712 17.0971 47.0818 17.3951C47.1924 17.693 47.3628 17.9334 47.5931 18.1163C47.8233 18.2991 48.1167 18.3905 48.4734 18.3905ZM24.5902 26.2327H23.7505C23.7008 25.9911 23.6139 25.779 23.4898 25.5961C23.3679 25.4133 23.2189 25.2598 23.0428 25.1356C22.869 25.0092 22.676 24.9144 22.4639 24.8512C22.2517 24.788 22.0305 24.7564 21.8002 24.7564C21.3804 24.7564 21 24.8625 20.6592 25.0747C20.3206 25.2869 20.0509 25.5995 19.85 26.0126C19.6513 26.4257 19.552 26.9324 19.552 27.5329C19.552 28.1333 19.6513 28.64 19.85 29.0531C20.0509 29.4662 20.3206 29.7788 20.6592 29.991C21 30.2032 21.3804 30.3093 21.8002 30.3093C22.0305 30.3093 22.2517 30.2777 22.4639 30.2145C22.676 30.1513 22.869 30.0576 23.0428 29.9334C23.2189 29.807 23.3679 29.6524 23.4898 29.4696C23.6139 29.2845 23.7008 29.0723 23.7505 28.833H24.5902C24.527 29.1874 24.4119 29.5046 24.2448 29.7845C24.0778 30.0644 23.8701 30.3025 23.6218 30.4989C23.3735 30.693 23.0948 30.8409 22.7855 30.9424C22.4785 31.044 22.1501 31.0948 21.8002 31.0948C21.2088 31.0948 20.6829 30.9503 20.2224 30.6614C19.7619 30.3725 19.3996 29.9617 19.1355 29.4289C18.8714 28.8962 18.7394 28.2642 18.7394 27.5329C18.7394 26.8015 18.8714 26.1695 19.1355 25.6368C19.3996 25.104 19.7619 24.6932 20.2224 24.4043C20.6829 24.1154 21.2088 23.9709 21.8002 23.9709C22.1501 23.9709 22.4785 24.0217 22.7855 24.1233C23.0948 24.2248 23.3735 24.3738 23.6218 24.5702C23.8701 24.7643 24.0778 25.0013 24.2448 25.2812C24.4119 25.5589 24.527 25.876 24.5902 26.2327ZM27.9515 31.1083C27.482 31.1083 27.0701 30.9966 26.7157 30.7731C26.3636 30.5497 26.0882 30.237 25.8895 29.8353C25.6932 29.4335 25.595 28.964 25.595 28.4267C25.595 27.885 25.6932 27.4121 25.8895 27.008C26.0882 26.604 26.3636 26.2902 26.7157 26.0668C27.0701 25.8433 27.482 25.7316 27.9515 25.7316C28.421 25.7316 28.8319 25.8433 29.184 26.0668C29.5384 26.2902 29.8138 26.604 30.0102 27.008C30.2088 27.4121 30.3081 27.885 30.3081 28.4267C30.3081 28.964 30.2088 29.4335 30.0102 29.8353C29.8138 30.237 29.5384 30.5497 29.184 30.7731C28.8319 30.9966 28.421 31.1083 27.9515 31.1083ZM27.9515 30.3905C28.3082 30.3905 28.6016 30.2991 28.8319 30.1163C29.0621 29.9334 29.2325 29.693 29.3431 29.3951C29.4537 29.0971 29.509 28.7743 29.509 28.4267C29.509 28.0791 29.4537 27.7552 29.3431 27.455C29.2325 27.1548 29.0621 26.9121 28.8319 26.727C28.6016 26.5419 28.3082 26.4494 27.9515 26.4494C27.5949 26.4494 27.3014 26.5419 27.0712 26.727C26.841 26.9121 26.6705 27.1548 26.5599 27.455C26.4493 27.7552 26.394 28.0791 26.394 28.4267C26.394 28.7743 26.4493 29.0971 26.5599 29.3951C26.6705 29.693 26.841 29.9334 27.0712 30.1163C27.3014 30.2991 27.5949 30.3905 27.9515 30.3905ZM32.3269 27.8714V31H31.5279V25.7993H32.2999V26.6119H32.3676C32.4895 26.3478 32.6746 26.1356 32.9229 25.9753C33.1712 25.8128 33.4917 25.7316 33.8845 25.7316C34.2366 25.7316 34.5447 25.8038 34.8088 25.9483C35.0729 26.0905 35.2783 26.3072 35.425 26.5983C35.5718 26.8873 35.6451 27.253 35.6451 27.6954V31H34.846V27.7495C34.846 27.341 34.74 27.0227 34.5278 26.7947C34.3156 26.5645 34.0244 26.4494 33.6542 26.4494C33.3991 26.4494 33.1712 26.5047 32.9703 26.6153C32.7716 26.7259 32.6147 26.8873 32.4996 27.0995C32.3845 27.3116 32.3269 27.569 32.3269 27.8714ZM39.367 25.7993V26.4765H36.6719V25.7993H39.367ZM37.4574 24.5533H38.2565V29.5102C38.2565 29.7359 38.2892 29.9052 38.3547 30.0181C38.4224 30.1287 38.5082 30.2032 38.612 30.2416C38.7181 30.2777 38.8298 30.2957 38.9472 30.2957C39.0352 30.2957 39.1075 30.2912 39.1639 30.2822C39.2203 30.2709 39.2655 30.2619 39.2993 30.2551L39.4619 30.9729C39.4077 30.9932 39.3321 31.0135 39.235 31.0339C39.1379 31.0564 39.0149 31.0677 38.8659 31.0677C38.6402 31.0677 38.419 31.0192 38.2023 30.9221C37.9879 30.8251 37.8095 30.6772 37.6673 30.4786C37.5274 30.2799 37.4574 30.0294 37.4574 29.7269V24.5533ZM42.0995 31.1219C41.7699 31.1219 41.4708 31.0598 41.2022 30.9357C40.9336 30.8093 40.7203 30.6276 40.5623 30.3905C40.4043 30.1513 40.3253 29.8623 40.3253 29.5238C40.3253 29.2258 40.3839 28.9843 40.5013 28.7992C40.6187 28.6118 40.7756 28.4651 40.972 28.359C41.1683 28.2529 41.385 28.1739 41.622 28.122C41.8613 28.0678 42.1017 28.0249 42.3432 27.9933C42.6593 27.9527 42.9155 27.9222 43.1118 27.9019C43.3105 27.8793 43.4549 27.8421 43.5452 27.7902C43.6378 27.7383 43.6841 27.648 43.6841 27.5193V27.4922C43.6841 27.1581 43.5926 26.8986 43.4098 26.7135C43.2292 26.5284 42.955 26.4358 42.587 26.4358C42.2055 26.4358 41.9065 26.5193 41.6898 26.6864C41.4731 26.8534 41.3207 27.0317 41.2327 27.2214L40.4742 26.9505C40.6097 26.6345 40.7902 26.3884 41.016 26.2124C41.244 26.034 41.4923 25.9099 41.7609 25.8399C42.0317 25.7677 42.2981 25.7316 42.5599 25.7316C42.727 25.7316 42.9188 25.7519 43.1355 25.7925C43.3545 25.8309 43.5655 25.911 43.7687 26.0329C43.9741 26.1548 44.1445 26.3388 44.28 26.5848C44.4154 26.8308 44.4831 27.1604 44.4831 27.5735V31H43.6841V30.2957H43.6434C43.5892 30.4086 43.499 30.5294 43.3726 30.658C43.2461 30.7867 43.078 30.8962 42.8681 30.9865C42.6581 31.0767 42.4019 31.1219 42.0995 31.1219ZM42.2213 30.4041C42.5374 30.4041 42.8037 30.342 43.0204 30.2179C43.2394 30.0937 43.4042 29.9334 43.5148 29.7371C43.6276 29.5407 43.6841 29.3341 43.6841 29.1174V28.3861C43.6502 28.4267 43.5757 28.464 43.4606 28.4978C43.3477 28.5294 43.2168 28.5576 43.0678 28.5825C42.9211 28.6051 42.7778 28.6254 42.6378 28.6434C42.5001 28.6592 42.3884 28.6728 42.3026 28.6841C42.0949 28.7111 41.9008 28.7552 41.7202 28.8161C41.5419 28.8748 41.3975 28.964 41.2868 29.0836C41.1785 29.201 41.1243 29.3612 41.1243 29.5644C41.1243 29.842 41.227 30.052 41.4324 30.1942C41.6401 30.3341 41.9031 30.4041 42.2213 30.4041ZM48.0544 31.1083C47.5668 31.1083 47.147 30.9932 46.7948 30.763C46.4427 30.5327 46.1718 30.2156 45.9822 29.8116C45.7926 29.4075 45.6978 28.9459 45.6978 28.4267C45.6978 27.8985 45.7949 27.4324 45.989 27.0284C46.1854 26.622 46.4585 26.3049 46.8084 26.0769C47.1605 25.8467 47.5713 25.7316 48.0408 25.7316C48.4065 25.7316 48.7361 25.7993 49.0295 25.9347C49.323 26.0702 49.5634 26.2598 49.7507 26.5035C49.9381 26.7473 50.0543 27.0317 50.0995 27.3568H49.3004C49.2394 27.1198 49.104 26.9099 48.8941 26.727C48.6864 26.5419 48.4065 26.4494 48.0544 26.4494C47.7429 26.4494 47.4698 26.5306 47.235 26.6932C47.0025 26.8534 46.8208 27.0803 46.6899 27.3737C46.5612 27.6649 46.4969 28.0069 46.4969 28.3996C46.4969 28.8014 46.5601 29.1513 46.6865 29.4493C46.8151 29.7472 46.9957 29.9786 47.2282 30.1434C47.463 30.3082 47.7384 30.3905 48.0544 30.3905C48.2621 30.3905 48.4505 30.3544 48.6198 30.2822C48.7891 30.21 48.9325 30.1061 49.0498 29.9707C49.1672 29.8353 49.2507 29.6727 49.3004 29.4831H50.0995C50.0543 29.7901 49.9426 30.0666 49.7643 30.3127C49.5882 30.5564 49.3546 30.7506 49.0634 30.895C48.7744 31.0372 48.4381 31.1083 48.0544 31.1083ZM53.5294 25.7993V26.4765H50.8342V25.7993H53.5294ZM51.6197 24.5533H52.4188V29.5102C52.4188 29.7359 52.4515 29.9052 52.517 30.0181C52.5847 30.1287 52.6705 30.2032 52.7743 30.2416C52.8804 30.2777 52.9921 30.2957 53.1095 30.2957C53.1975 30.2957 53.2698 30.2912 53.3262 30.2822C53.3826 30.2709 53.4278 30.2619 53.4616 30.2551L53.6242 30.9729C53.57 30.9932 53.4944 31.0135 53.3973 31.0339C53.3003 31.0564 53.1772 31.0677 53.0283 31.0677C52.8025 31.0677 52.5813 31.0192 52.3646 30.9221C52.1502 30.8251 51.9719 30.6772 51.8296 30.4786C51.6897 30.2799 51.6197 30.0294 51.6197 29.7269V24.5533Z" fill="white"/>
<circle cx="83.8317" cy="21.8317" r="14.8317" fill="white"/>
<g clip-path="url(#clip0_3_95)">
<path d="M89.3936 21.0371H84.6262V16.2698C84.6262 15.831 84.2705 15.4753 83.8317 15.4753C83.3929 15.4753 83.0371 15.831 83.0371 16.2698V21.0371H78.2698C77.831 21.0371 77.4753 21.3929 77.4753 21.8317C77.4753 22.2705 77.831 22.6262 78.2698 22.6262H83.0371V27.3936C83.0371 27.8324 83.3929 28.1881 83.8317 28.1881C84.2705 28.1881 84.6262 27.8324 84.6262 27.3936V22.6262H89.3936C89.8324 22.6262 90.1881 22.2705 90.1881 21.8317C90.1881 21.3929 89.8324 21.0371 89.3936 21.0371Z" fill="#1D1D1F"/>
</g>
<defs>
<clipPath id="clip0_3_95">
<rect width="12.7129" height="12.7129" fill="white" transform="translate(77.4753 15.4753)"/>
</clipPath>
</defs>
</svg>
