<svg width="26" height="25" viewBox="0 0 26 25" fill="none" xmlns="http://www.w3.org/2000/svg">
<g clip-path="url(#clip0_9_252)">
<path d="M25.1564 12.213C25.1564 18.2543 20.7241 23.2626 14.938 24.1715V15.7355H17.7513L18.287 12.2453H14.938V9.98071C14.938 9.02544 15.406 8.09539 16.905 8.09539H18.4272V5.12368C18.4272 5.12368 17.0452 4.88763 15.7248 4.88763C12.9669 4.88763 11.1654 6.5591 11.1654 9.58428V12.2443H8.09983V15.7345H11.1654V24.1705C5.38029 23.2606 0.946927 18.2533 0.946927 12.213C0.946927 5.52818 6.36683 0.108276 13.0517 0.108276C19.7365 0.108276 25.1564 5.52717 25.1564 12.213Z" fill="black"/>
</g>
<defs>
<clipPath id="clip0_9_252">
<rect width="24.2095" height="24.2095" fill="white" transform="translate(0.94693 0.034668)"/>
</clipPath>
</defs>
</svg>
