<svg width="40" height="50" viewBox="0 0 40 50" fill="none" xmlns="http://www.w3.org/2000/svg">
<path d="M10.8603 43.4197C10.8142 42.6256 10.7745 41.9909 10.7412 41.3562C10.5111 36.9494 10.3969 32.541 10.738 28.1366C10.8871 26.2134 11.0848 24.2847 11.4323 22.3894C11.7086 20.8817 12.2482 19.421 12.6671 17.9388C12.8072 17.442 13.1135 17.3846 13.555 17.5688C14.9169 18.1373 15.9726 19.0837 16.8282 20.2343C17.9778 21.7795 18.7191 23.5065 18.9735 25.4217C18.9962 25.5947 19.1048 25.7565 19.1882 25.9599C20.5753 24.3676 20.555 22.5059 19.1826 20.9056C18.0046 19.5334 16.5219 18.5862 14.8578 17.8766C13.2714 17.2012 12.0367 15.7669 12.5528 13.7632C12.603 13.5678 12.4767 13.276 12.3405 13.0958C11.4137 11.8727 11.0046 10.4543 10.6829 8.99837C10.6594 8.89312 10.4382 7.74497 10.4382 7.6174C10.6959 8.2449 10.7396 9.12674 11.7686 9.85709C12.3632 10.2789 12.9863 10.4336 13.7017 10.3036C15.2532 10.0229 16.8217 9.80207 18.3813 10.1274C19.0262 10.2621 19.6111 10.668 20.2293 10.9367C20.5275 11.0666 20.8329 11.2309 21.1481 11.266C24.9916 11.6917 28.8375 12.0976 32.6827 12.5034C33.2652 12.5648 34.4416 12.7442 34.444 12.792C33.889 12.8606 33.3341 12.9332 32.7783 12.9985C29.0936 13.4331 25.4088 13.8597 21.7265 14.3086C21.3247 14.3572 20.9212 14.4943 20.5477 14.6554C19.3916 15.1545 19.2887 16.3266 20.303 17.0713C22.2507 18.5017 23.5794 20.3276 23.9278 22.7443C24.2883 25.2439 23.7261 27.5609 22.2548 29.6044C21.4438 30.7311 20.4027 31.695 19.5123 32.7698C19.2482 33.0888 19.091 33.5193 18.9711 33.9243C18.5927 35.1961 18.3675 36.5228 17.8741 37.7467C17.2195 39.3701 16.4223 40.9448 15.5894 42.49C14.3085 44.8684 10.8466 49.0998 10.7542 49.1301C10.7364 48.9771 10.7064 48.8375 10.7064 48.6972C10.7072 46.4073 11.0669 44.1724 11.6802 41.9622C12.36 39.5096 13.3873 37.2324 15.0911 35.3133C15.8324 34.4785 16.7293 33.7681 17.6092 33.0656C18.041 32.7212 18.2881 32.4031 18.2792 31.825C18.2622 30.7438 18.3408 29.661 18.3724 28.5791C18.378 28.3949 18.3489 28.2091 18.3221 27.836C17.6448 28.4491 17.0558 28.9387 16.5171 29.4769C14.6739 31.3179 13.0414 33.316 12.1526 35.7861C11.8423 36.6488 11.6762 37.5721 11.5409 38.4819C11.3246 39.9537 10.9414 43.1526 10.8603 43.4197ZM19.33 31.4463C19.3802 31.4742 19.4305 31.5013 19.4807 31.5292C20.0025 30.9232 20.5607 30.3436 21.0395 29.7057C22.8033 27.356 23.5932 24.779 22.7595 21.8784C22.2394 20.0708 21.0436 18.7449 19.5228 17.6693C18.5158 16.9573 18.3181 15.2837 19.2409 14.472C19.7448 14.0279 20.4157 13.6914 21.0687 13.5064C21.8894 13.2736 22.7701 13.2433 23.6248 13.1301C24.2827 13.0424 24.9414 12.9611 25.5992 12.8774C25.596 12.8192 25.5927 12.7601 25.5895 12.7019C24.7583 12.6103 23.927 12.5265 23.0966 12.4253C22.1649 12.3113 21.2291 12.2132 20.3063 12.0481C19.6355 11.9277 18.9922 11.6327 18.3189 11.5498C16.4328 11.317 14.8764 11.9373 13.7673 13.4889C13.4084 13.9904 13.3006 14.5438 13.474 15.1856C13.7632 16.2564 14.6042 16.7149 15.5003 17.1287C17.0971 17.8662 18.5871 18.7568 19.7327 20.0979C21.5353 22.2069 21.7978 24.323 20.0041 26.4191C19.3981 27.1279 19.2976 27.7395 19.3276 28.5193C19.3316 28.6158 19.3292 28.713 19.3292 28.8095C19.33 29.6882 19.33 30.5676 19.33 31.4463ZM11.5466 34.5518C12.0505 33.7226 12.441 33.0361 12.8728 32.3751C14.2437 30.275 15.9985 28.5201 17.9438 26.9358C18.0872 26.8194 18.2549 26.565 18.2176 26.4263C17.8571 25.094 17.5444 23.7385 17.0404 22.4572C16.4409 20.9335 15.3658 19.732 13.9512 18.8398C13.5615 18.5942 13.3622 18.6444 13.2512 19.1013C13.0211 20.0485 12.6889 20.9782 12.5374 21.9366C12.2182 23.9522 11.9541 25.9782 11.7353 28.0066C11.6049 29.2153 11.5887 30.4368 11.553 31.6536C11.5247 32.5713 11.5466 33.489 11.5466 34.5518ZM11.8885 46.184C14.7492 42.5498 16.9562 38.5991 17.9211 34.0455C13.8378 37.0873 12.4596 41.4407 11.8885 46.184Z" fill="url(#paint0_linear_295_150)"/>
<path d="M39.233 19.2863C39.1423 28.5041 32.5668 36.349 23.406 38.1781C22.6963 38.32 21.9655 38.3575 21.2477 38.4635C20.7892 38.5313 20.7041 38.1853 20.6741 37.907C20.6628 37.8009 20.9893 37.5665 21.1772 37.5482C26.68 37.0156 31.0971 34.5718 34.4618 30.2702C36.3617 27.8408 37.5049 25.086 38.0023 22.0705C38.4723 19.2177 38.3005 16.368 37.3137 13.6707C34.7673 6.70685 29.8106 2.33512 22.3115 1.2077C15.7474 0.219815 10.1482 2.34309 5.65084 7.15176C3.66994 9.27025 2.35987 11.7874 1.58047 14.5589C0.852117 17.1486 0.731399 19.8173 1.22237 22.4245C2.1476 27.3456 4.71103 31.3314 8.87457 34.2736C9.00339 34.3653 9.17515 34.5215 9.17191 34.6435C9.16705 34.8357 9.07306 35.0717 8.93209 35.1961C8.85675 35.2631 8.57237 35.1817 8.43626 35.09C6.14425 33.5305 4.29297 31.5682 2.83221 29.2289C1.61531 27.281 0.783251 25.1785 0.362764 22.9563C-0.0277448 20.8913 -0.132258 18.8023 0.194247 16.6758C0.839964 12.4675 2.61832 8.84129 5.61682 5.81225C8.44841 2.95145 11.899 1.15588 15.8827 0.376889C20.3711 -0.501764 24.6513 0.170381 28.6787 2.24183C32.3432 4.12671 35.1375 6.90937 37.0155 10.5571C38.0242 12.517 38.7356 14.5629 38.9446 16.7635C39.0224 17.6047 39.1358 18.4451 39.233 19.2863Z" fill="url(#paint1_linear_295_150)"/>
<defs>
<linearGradient id="paint0_linear_295_150" x1="3.21712" y1="30.485" x2="35.0045" y2="8.88909" gradientUnits="userSpaceOnUse">
<stop stop-color="#DDB34A"/>
<stop offset="0.2793" stop-color="#C5AC5A"/>
<stop offset="0.5251" stop-color="#E1D5A1"/>
<stop offset="0.8045" stop-color="#C5AC5A"/>
<stop offset="1" stop-color="#DBB24B"/>
</linearGradient>
<linearGradient id="paint1_linear_295_150" x1="3.21712" y1="30.485" x2="35.0045" y2="8.88908" gradientUnits="userSpaceOnUse">
<stop stop-color="#DDB34A"/>
<stop offset="0.2793" stop-color="#C5AC5A"/>
<stop offset="0.5251" stop-color="#E1D5A1"/>
<stop offset="0.8045" stop-color="#C5AC5A"/>
<stop offset="1" stop-color="#DBB24B"/>
</linearGradient>
</defs>
</svg>
