<svg width="25" height="24" viewBox="0 0 25 24" fill="none" xmlns="http://www.w3.org/2000/svg">
<path d="M12.5964 2.13477C15.8283 2.13477 16.2117 2.14642 17.4877 2.20276C18.8071 2.26105 20.1659 2.55051 21.1272 3.47623C22.0976 4.41068 22.3891 5.70649 22.4496 6.98093C22.5081 8.20971 22.5202 8.57883 22.5202 11.6911C22.5202 14.8034 22.5081 15.1725 22.4496 16.4013C22.3901 17.665 22.0825 18.9861 21.1272 19.906C20.1568 20.8404 18.8122 21.1211 17.4877 21.1794C16.2117 21.2358 15.8283 21.2474 12.5964 21.2474C9.3644 21.2474 8.98109 21.2358 7.70504 21.1794C6.40278 21.1221 5.01275 20.819 4.06555 19.906C3.1002 18.9764 2.80363 17.6679 2.74311 16.4013C2.6846 15.1725 2.6725 14.8034 2.6725 11.6911C2.6725 8.57883 2.6846 8.20971 2.74311 6.98093C2.80262 5.72203 3.11331 4.3932 4.06555 3.47623C5.03393 2.54371 6.38462 2.26105 7.70504 2.20276C8.98109 2.14642 9.3644 2.13477 12.5964 2.13477ZM12.5964 0.034668C9.30892 0.034668 8.89635 0.0482671 7.60518 0.104607C5.73399 0.187173 3.87591 0.688399 2.5232 1.991C1.16545 3.29847 0.649993 5.08384 0.564251 6.88476C0.505745 8.12811 0.491623 8.5254 0.491623 11.6911C0.491623 14.8568 0.505745 15.2541 0.564251 16.4974C0.649993 18.2974 1.17252 20.0915 2.5232 21.3912C3.87994 22.6977 5.73701 23.195 7.60518 23.2776C8.89635 23.3339 9.30892 23.3475 12.5964 23.3475C15.8838 23.3475 16.2964 23.3339 17.5876 23.2776C19.4577 23.195 21.3178 22.6928 22.6695 21.3912C24.0283 20.0827 24.5428 18.2983 24.6285 16.4974C24.687 15.2541 24.7011 14.8568 24.7011 11.6911C24.7011 8.5254 24.687 8.12811 24.6285 6.88476C24.5428 5.08287 24.0212 3.29264 22.6695 1.991C21.3148 0.686456 19.4527 0.186201 17.5876 0.104607C16.2964 0.0482671 15.8838 0.034668 12.5964 0.034668Z" fill="black"/>
<path d="M12.5964 5.70551C9.16366 5.70551 6.38058 8.38551 6.38058 11.6911C6.38058 14.9966 9.16366 17.6767 12.5964 17.6767C16.0291 17.6767 18.8122 14.9966 18.8122 11.6911C18.8122 8.38551 16.0291 5.70551 12.5964 5.70551ZM12.5964 15.5766C10.3681 15.5766 8.56145 13.8368 8.56145 11.6911C8.56145 9.54533 10.3681 7.8056 12.5964 7.8056C14.8246 7.8056 16.6313 9.54533 16.6313 11.6911C16.6313 13.8368 14.8246 15.5766 12.5964 15.5766Z" fill="black"/>
<path d="M19.0583 6.86724C19.8605 6.86724 20.5109 6.24099 20.5109 5.46847C20.5109 4.69595 19.8605 4.0697 19.0583 4.0697C18.2561 4.0697 17.6057 4.69595 17.6057 5.46847C17.6057 6.24099 18.2561 6.86724 19.0583 6.86724Z" fill="black"/>
</svg>
