<svg width="27" height="23" viewBox="0 0 27 23" fill="none" xmlns="http://www.w3.org/2000/svg">
<path d="M25.2679 21.6134H25.5138L25.0425 20.9251C25.3307 20.9251 25.4835 20.7483 25.4857 20.5318C25.4857 20.5234 25.4857 20.514 25.4846 20.5056C25.4846 20.2106 25.3004 20.0694 24.9223 20.0694H24.3112V21.6134H24.5409V20.9408H24.8237L25.2679 21.6134ZM24.8074 20.7661H24.5409V20.2441H24.8789C25.0534 20.2441 25.2527 20.2713 25.2527 20.492C25.2527 20.7452 25.0523 20.7661 24.8074 20.7661Z" fill="black"/>
<path d="M19.0803 18.9867H15.8224V14.0607C15.8224 12.8859 15.8007 11.3743 14.1279 11.3743C12.4312 11.3743 12.1711 12.6537 12.1711 13.9759V18.9867H8.91429V8.85637H12.0422V10.2403H12.0856C12.7237 9.18798 13.909 8.55928 15.1712 8.60426C18.4736 8.60426 19.0814 10.7017 19.0814 13.4288L19.0803 18.9867ZM5.23815 7.47134C4.1937 7.47134 3.34753 6.65435 3.34753 5.64592C3.34753 4.63749 4.1937 3.82049 5.23815 3.82049C6.2826 3.82049 7.12877 4.63749 7.12877 5.64592C7.12877 6.65435 6.2826 7.47134 5.23815 7.47134ZM6.86658 18.9867H3.60539V8.85637H6.86658V18.9867ZM20.7044 0.89981H1.9683C1.08312 0.890395 0.357209 1.57558 0.346375 2.43024V20.5945C0.357209 21.4502 1.08312 22.1354 1.9683 22.126H20.7044C21.5917 22.1365 22.3209 21.4513 22.3328 20.5945V2.42919C22.3198 1.57244 21.5907 0.887256 20.7044 0.898763" fill="black"/>
<path d="M24.8356 19.3821C24.0078 19.3894 23.3426 20.0443 23.3513 20.8435C23.3588 21.6427 24.0371 22.285 24.8648 22.2766C25.6926 22.2693 26.3578 21.6145 26.3492 20.8153C26.3416 20.0265 25.6807 19.3894 24.8648 19.3821H24.8356ZM24.8703 22.1103C24.1443 22.1218 23.5116 21.5643 23.4997 20.8634C23.4878 20.1625 24.0663 19.5851 24.7922 19.5735C25.5182 19.562 26.1162 20.1206 26.1281 20.8215C26.1281 20.8289 26.1281 20.8351 26.1281 20.8425C26.1433 21.5276 25.5799 22.0957 24.8703 22.1103H24.8367Z" fill="black"/>
</svg>
