<svg width="25" height="25" viewBox="0 0 25 25" fill="none" xmlns="http://www.w3.org/2000/svg">
<path d="M12.5964 2.9502C15.8284 2.9502 16.2117 2.96185 17.4878 3.01819C18.8072 3.07647 20.166 3.36594 21.1273 4.29166C22.0977 5.22611 22.3892 6.52192 22.4497 7.79636C22.5082 9.02514 22.5203 9.39426 22.5203 12.5065C22.5203 15.6188 22.5082 15.9879 22.4497 17.2167C22.3902 18.4804 22.0825 19.8015 21.1273 20.7214C20.1569 21.6558 18.8122 21.9366 17.4878 21.9949C16.2117 22.0512 15.8284 22.0628 12.5964 22.0628C9.36448 22.0628 8.98116 22.0512 7.70512 21.9949C6.40285 21.9375 5.01282 21.6345 4.06563 20.7214C3.10027 19.7918 2.80371 18.4834 2.74318 17.2167C2.68468 15.9879 2.67257 15.6188 2.67257 12.5065C2.67257 9.39426 2.68468 9.02514 2.74318 7.79636C2.8027 6.53746 3.11339 5.20863 4.06563 4.29166C5.03401 3.35914 6.38469 3.07647 7.70512 3.01819C8.98116 2.96185 9.36448 2.9502 12.5964 2.9502ZM12.5964 0.850098C9.309 0.850098 8.89643 0.863697 7.60526 0.920036C5.73406 1.0026 3.87599 1.50383 2.52328 2.80643C1.16553 4.1139 0.65007 5.89927 0.564328 7.70019C0.505821 8.94354 0.491699 9.34083 0.491699 12.5065C0.491699 15.6722 0.505821 16.0695 0.564328 17.3129C0.65007 19.1128 1.17259 20.9069 2.52328 22.2066C3.88002 23.5131 5.73709 24.0104 7.60526 24.093C8.89643 24.1493 9.309 24.1629 12.5964 24.1629C15.8839 24.1629 16.2965 24.1493 17.5876 24.093C19.4578 24.0104 21.3179 23.5082 22.6696 22.2066C24.0284 20.8982 24.5428 19.1138 24.6286 17.3129C24.6871 16.0695 24.7012 15.6722 24.7012 12.5065C24.7012 9.34083 24.6871 8.94354 24.6286 7.70019C24.5428 5.8983 24.0213 4.10807 22.6696 2.80643C21.3149 1.50189 19.4528 1.00163 17.5876 0.920036C16.2965 0.863697 15.8839 0.850098 12.5964 0.850098Z" fill="white"/>
<path d="M12.5964 6.52094C9.1637 6.52094 6.38062 9.20094 6.38062 12.5065C6.38062 15.8121 9.1637 18.4921 12.5964 18.4921C16.0291 18.4921 18.8122 15.8121 18.8122 12.5065C18.8122 9.20094 16.0291 6.52094 12.5964 6.52094ZM12.5964 16.392C10.3681 16.392 8.56149 14.6523 8.56149 12.5065C8.56149 10.3608 10.3681 8.62103 12.5964 8.62103C14.8247 8.62103 16.6313 10.3608 16.6313 12.5065C16.6313 14.6523 14.8247 16.392 12.5964 16.392Z" fill="white"/>
<path d="M19.0584 7.68267C19.8606 7.68267 20.511 7.05642 20.511 6.2839C20.511 5.51138 19.8606 4.88513 19.0584 4.88513C18.2562 4.88513 17.6058 5.51138 17.6058 6.2839C17.6058 7.05642 18.2562 7.68267 19.0584 7.68267Z" fill="white"/>
</svg>
