<svg width="25" height="25" viewBox="0 0 25 25" fill="none" xmlns="http://www.w3.org/2000/svg">
<path d="M0.0552969 20.3386C-0.0418049 20.0109 0.0335842 19.6483 0.204546 19.3523V19.3523C0.438313 18.935 0.847406 18.5745 1.34416 18.271C2.08653 17.8051 2.95464 17.4481 3.89524 17.1538C4.20931 17.0555 4.54992 17.1592 4.76323 17.4098C4.79305 17.4448 4.8228 17.4798 4.85251 17.5148C5.20785 17.9329 5.00361 18.5463 4.50002 18.7642V18.7642C4.03248 18.9539 3.56495 19.1436 3.12663 19.3523C2.95131 19.4282 2.80521 19.561 2.68832 19.6748C2.36689 19.9783 2.36689 20.2439 2.68832 20.5474C3.03897 20.8699 3.53573 21.0976 4.0617 21.2873C5.25976 21.7236 6.54548 21.9892 7.88964 22.1789C9.64289 22.4255 11.4546 22.4824 13.2371 22.4255C15.3994 22.3496 17.5325 22.084 19.5196 21.458C20.1332 21.2683 20.6884 21.0407 21.1559 20.6992C21.7111 20.3008 21.7111 19.9404 21.1559 19.542C20.63 19.1626 19.9579 18.935 19.2566 18.7263V18.7263C18.856 18.5963 18.6914 18.1271 18.9652 17.8072C19.0556 17.7015 19.1468 17.5954 19.2383 17.4889C19.4462 17.2473 19.7738 17.1431 20.0807 17.2291C20.8571 17.4468 21.5868 17.706 22.2371 18.0813C22.6754 18.3279 23.0845 18.5935 23.4059 18.897C24.3702 19.8266 24.1365 20.9648 22.88 21.8374C22.091 22.3875 21.0975 22.748 20.0455 23.0515C18.526 23.4688 16.9481 23.7154 15.3117 23.8482C14.6397 23.9052 13.9384 23.9241 13.2371 23.981C13.1786 23.981 13.1202 24 13.0617 24C12.2436 24 11.4254 24 10.578 24C10.4903 24 10.4319 23.981 10.3442 23.981C8.97081 23.9431 7.62665 23.8103 6.28249 23.5827C4.79223 23.336 3.3604 22.9756 2.1039 22.3686C1.22728 21.9512 0.525976 21.439 0.204546 20.7371C0.146105 20.6423 0.116884 20.5285 0.0876627 20.4336C0.0751814 20.4012 0.0644771 20.3696 0.0552969 20.3386Z" fill="black"/>
<path d="M12.8365 19.8622C12.4416 20.421 11.6133 20.4277 11.2088 19.8758C10.8756 19.4212 10.5512 18.9763 10.2355 18.5314C8.83816 16.5508 7.49786 14.5415 6.44273 12.36C6.01498 11.4702 5.61574 10.5516 5.30206 9.63309C4.78875 8.16917 4.95985 6.67655 5.58723 5.29874C6.64235 2.91628 8.49595 1.48107 11.0625 1.07921C14.7126 0.505121 18.2487 3.11721 18.9046 6.79137C19.1613 8.19788 18.8761 9.51827 18.3343 10.81C17.4503 12.9054 16.3096 14.8286 15.0548 16.6944C14.335 17.7386 13.5995 18.7828 12.8365 19.8622ZM12.032 5.7006C10.7488 5.7006 9.69366 6.73396 9.69366 7.99695C9.69366 9.28864 10.7488 10.3794 12.032 10.3507C13.2868 10.3507 14.3419 9.28864 14.3419 8.05435C14.3419 6.76266 13.3153 5.7006 12.032 5.7006Z" fill="black"/>
</svg>
