<svg width="25" height="25" viewBox="0 0 25 25" fill="none" xmlns="http://www.w3.org/2000/svg">
<path d="M12.0125 23.4453C9.6867 23.4453 7.33289 23.4453 5.00709 23.4453C3.04558 23.4453 1.44835 22.1283 1.08406 20.1948C1.02802 19.9426 1 19.6904 1 19.4382C1 15.8515 1 12.2647 1 8.70595C1 8.31364 1.14011 8.00541 1.47637 7.78123C4.5027 5.67961 7.52904 3.60601 10.5274 1.50439C11.4801 0.83187 12.5169 0.83187 13.4696 1.50439C16.496 3.60601 19.5223 5.70763 22.5486 7.78123C22.8569 8.00541 23.025 8.28562 22.997 8.67793C22.997 12.2927 22.997 15.8795 22.997 19.4943C22.997 21.708 21.2316 23.4453 19.0179 23.4453C16.6921 23.4453 14.3663 23.4453 12.0125 23.4453ZM20.9234 8.62188C20.8393 8.56584 20.7833 8.5098 20.7272 8.48177C18.0371 6.60432 15.3471 4.7549 12.657 2.87745C12.1246 2.51317 11.9004 2.51317 11.368 2.87745C9.32242 4.27853 7.27684 5.70763 5.25929 7.10871C4.55875 7.58508 3.85821 8.08947 3.12964 8.59386C3.24173 8.67793 3.29777 8.76199 3.38184 8.84605C6.04389 11.312 8.70595 13.7779 11.368 16.2438C11.8444 16.6921 12.2087 16.6921 12.685 16.2438C14.9267 14.1702 17.1685 12.0966 19.3822 10.023C19.8866 9.57462 20.391 9.12627 20.9234 8.62188ZM16.0196 15.3751C16.1037 15.4592 16.1877 15.4872 16.2438 15.5712C17.1405 16.4679 18.0652 17.3927 18.9619 18.2893C19.186 18.5135 19.2981 18.7377 19.2141 19.0459C19.158 19.3542 18.9619 19.5783 18.6536 19.6624C18.3454 19.7465 18.0371 19.6624 17.813 19.4382C16.9163 18.5415 16.0196 17.6448 15.1229 16.7201C15.0388 16.6361 14.9828 16.524 14.8987 16.4119C14.4504 16.8322 14.0861 17.1685 13.6938 17.5328C13.2735 17.9251 12.7971 18.1492 12.2367 18.2053C11.4521 18.2613 10.8076 18.0091 10.2752 17.4767C9.91088 17.1405 9.5466 16.8042 9.12627 16.4119C9.04221 16.496 9.01418 16.58 8.93012 16.6361C8.00541 17.5608 7.10871 18.4855 6.184 19.4102C5.81972 19.7745 5.31533 19.7745 4.97907 19.4382C4.64281 19.102 4.67083 18.6256 5.03511 18.2613C5.95983 17.3366 6.88454 16.4119 7.78123 15.4872C7.83728 15.4311 7.89332 15.3751 7.94936 15.3191C6.184 13.6658 4.41864 12.0405 2.62525 10.3872C2.62525 10.4993 2.59723 10.5834 2.59723 10.6394C2.59723 13.5537 2.59723 16.4679 2.59723 19.3822C2.59723 19.5783 2.59723 19.7745 2.65328 19.9706C2.90547 21.0915 3.83018 21.8201 5.00709 21.8201C9.65868 21.8201 14.3103 21.8201 18.9619 21.8201C19.186 21.8201 19.3822 21.792 19.6064 21.736C20.6992 21.4558 21.3717 20.5591 21.3717 19.3542C21.3717 16.4679 21.3717 13.5537 21.3717 10.6675C21.3717 10.5834 21.3717 10.4993 21.3717 10.3872C19.5783 12.0685 17.841 13.6938 16.0196 15.3751Z" fill="black"/>
</svg>
