<svg width="43" height="43" viewBox="0 0 43 43" fill="none" xmlns="http://www.w3.org/2000/svg">
<circle cx="21.5" cy="21.5" r="21.085" stroke="white" stroke-width="0.829932"/>
<g clip-path="url(#clip0_743_16)">
<path d="M23.3749 20.625C23.3749 21.384 22.7589 22 21.9999 22C21.2409 22 20.6249 21.384 20.6249 20.625C20.6249 19.866 21.2409 19.25 21.9999 19.25C22.7589 19.25 23.3749 19.866 23.3749 20.625ZM26.5833 19.25C25.8243 19.25 25.2083 19.866 25.2083 20.625C25.2083 21.384 25.8243 22 26.5833 22C27.3423 22 27.9583 21.384 27.9583 20.625C27.9583 19.866 27.3423 19.25 26.5833 19.25ZM17.4166 19.25C16.6576 19.25 16.0416 19.866 16.0416 20.625C16.0416 21.384 16.6576 22 17.4166 22C18.1756 22 18.7916 21.384 18.7916 20.625C18.7916 19.866 18.1756 19.25 17.4166 19.25ZM32.9999 14.6667V25.6667C32.9999 27.6888 31.3554 29.3333 29.3333 29.3333H26.7189L23.1916 32.2483C22.8607 32.5435 22.4363 32.692 22.0073 32.692C21.5709 32.692 21.1319 32.538 20.7817 32.2273L17.3451 29.3333H14.6657C12.6435 29.3333 10.999 27.6888 10.999 25.6667V14.6667C10.9999 12.6445 12.6444 11 14.6666 11H29.3333C31.3554 11 32.9999 12.6445 32.9999 14.6667ZM31.1666 14.6667C31.1666 13.6556 30.3444 12.8333 29.3333 12.8333H14.6666C13.6555 12.8333 12.8333 13.6556 12.8333 14.6667V25.6667C12.8333 26.6778 13.6555 27.5 14.6666 27.5H17.6806C17.896 27.5 18.1059 27.5761 18.2719 27.7154L21.9825 30.8413L25.8059 27.7099C25.97 27.5743 26.1763 27.5 26.3899 27.5H29.3342C30.3453 27.5 31.1675 26.6778 31.1675 25.6667L31.1666 14.6667Z" fill="white"/>
</g>
<defs>
<clipPath id="clip0_743_16">
<rect width="22" height="22" fill="white" transform="translate(11 11)"/>
</clipPath>
</defs>
</svg>
