<svg width="45" height="43" viewBox="0 0 45 43" fill="none" xmlns="http://www.w3.org/2000/svg">
<path d="M44.585 21.5C44.585 33.1274 34.7152 42.585 22.5 42.585C10.2848 42.585 0.414966 33.1274 0.414966 21.5C0.414966 9.87263 10.2848 0.414966 22.5 0.414966C34.7152 0.414966 44.585 9.87263 44.585 21.5Z" stroke="white" stroke-width="0.829932"/>
<path d="M26 32.7031H20C17.243 32.7031 15 30.6747 15 28.1816V15.5215C15 13.0283 17.243 11 20 11H26C28.757 11 31 13.0283 31 15.5215V28.1816C31 30.6747 28.757 32.7031 26 32.7031ZM20 12.8086C18.346 12.8086 17 14.0258 17 15.5215V28.1816C17 29.6773 18.346 30.8945 20 30.8945H26C27.654 30.8945 29 29.6773 29 28.1816V15.5215C29 14.0258 27.654 12.8086 26 12.8086H20ZM25 28.1816C25 27.6824 24.552 27.2773 24 27.2773H22C21.448 27.2773 21 27.6824 21 28.1816C21 28.6808 21.448 29.0859 22 29.0859H24C24.552 29.0859 25 28.6808 25 28.1816Z" fill="white"/>
</svg>
