<svg width="25" height="25" viewBox="0 0 25 25" fill="none" xmlns="http://www.w3.org/2000/svg">
<path d="M17.6847 0H6.31529C5.57962 0 5 0.615314 5 1.34458V23.6554C5 24.4075 5.60191 25 6.31529 25H17.6847C18.4204 25 19 24.3847 19 23.6554V1.34458C19 0.592525 18.4204 0 17.6847 0ZM10.1497 1.20784H13.8503C13.9618 1.20784 14.0732 1.299 14.0732 1.43573C14.0732 1.54968 13.9841 1.66363 13.8503 1.66363H10.1497C10.0382 1.66363 9.92675 1.57247 9.92675 1.43573C9.92675 1.32179 10.0159 1.20784 10.1497 1.20784ZM12 24.2479C11.5096 24.2479 11.1083 23.8377 11.1083 23.3364C11.1083 22.835 11.5096 22.4248 12 22.4248C12.4904 22.4248 12.8917 22.835 12.8917 23.3364C12.8917 23.8377 12.4904 24.2479 12 24.2479ZM17.8631 21.4448C17.8631 21.5132 17.7962 21.5816 17.7293 21.5816H6.31529C6.24841 21.5816 6.18153 21.5132 6.18153 21.4448V2.84868C6.18153 2.78031 6.24841 2.71194 6.31529 2.71194H17.7293C17.7962 2.71194 17.8631 2.78031 17.8631 2.84868V21.4448Z" fill="black"/>
</svg>
