<svg width="19" height="19" viewBox="0 0 19 19" fill="none" xmlns="http://www.w3.org/2000/svg">
<g clip-path="url(#clip0_150_121)">
<path d="M15.3053 11.6114C14.7067 11.6119 14.1173 11.758 13.5878 12.0371C13.0583 12.3163 12.6047 12.7201 12.2661 13.2137L7.11312 10.887C7.47912 10.0032 7.48054 9.0105 7.11708 8.12567L12.2629 5.78708C12.7647 6.51285 13.51 7.03472 14.3637 7.25804C15.2173 7.48135 16.1227 7.39132 16.9156 7.00427C17.7086 6.61722 18.3365 5.95879 18.6856 5.14842C19.0346 4.33804 19.0817 3.4294 18.8182 2.5873C18.5547 1.74521 17.9981 1.02544 17.2494 0.558564C16.5007 0.0916855 15.6094 -0.0913806 14.7373 0.0425722C13.8652 0.176525 13.0699 0.618624 12.4959 1.28868C11.9218 1.95873 11.6068 2.81235 11.6082 3.69471C11.6116 3.90355 11.6327 4.11172 11.6715 4.31696L6.20112 6.80279C5.67573 6.31055 5.01798 5.9825 4.3087 5.85894C3.59942 5.73538 2.8695 5.82169 2.2086 6.10728C1.5477 6.39286 0.984614 6.86528 0.588521 7.46649C0.192427 8.06771 -0.0194244 8.77153 -0.0210062 9.49149C-0.0225881 10.2114 0.186168 10.9162 0.579616 11.5191C0.973064 12.1221 1.53407 12.597 2.1937 12.8855C2.85334 13.1739 3.58288 13.2635 4.2927 13.143C5.00252 13.0226 5.66169 12.6974 6.18925 12.2075L11.6739 14.6838C11.6358 14.8889 11.6149 15.0968 11.6114 15.3053C11.6112 16.0361 11.8278 16.7505 12.2337 17.3583C12.6396 17.966 13.2167 18.4397 13.8918 18.7194C14.567 18.9991 15.3099 19.0724 16.0267 18.9298C16.7435 18.7873 17.4019 18.4354 17.9186 17.9186C18.4354 17.4019 18.7873 16.7435 18.9298 16.0267C19.0724 15.3099 18.9991 14.567 18.7194 13.8918C18.4397 13.2167 17.966 12.6396 17.3583 12.2337C16.7505 11.8278 16.0361 11.6112 15.3053 11.6114ZM15.3053 1.58333C15.7229 1.58318 16.1312 1.70687 16.4785 1.93878C16.8258 2.17068 17.0966 2.50038 17.2565 2.88617C17.4164 3.27196 17.4584 3.69651 17.377 4.10613C17.2956 4.51575 17.0946 4.89203 16.7993 5.1874C16.5041 5.48276 16.1279 5.68392 15.7183 5.76546C15.3087 5.84699 14.8841 5.80522 14.4983 5.64544C14.1124 5.48566 13.7826 5.21504 13.5506 4.86781C13.3186 4.52058 13.1947 4.11233 13.1947 3.69471C13.1951 3.135 13.4176 2.59833 13.8133 2.20248C14.209 1.80664 14.7456 1.58396 15.3053 1.58333ZM3.69471 11.6114C3.27708 11.6115 2.86879 11.4878 2.52147 11.2559C2.17416 11.024 1.90341 10.6943 1.74349 10.3085C1.58356 9.92275 1.54163 9.49819 1.62301 9.08858C1.70439 8.67896 1.90542 8.30267 2.20067 8.00731C2.49592 7.71195 2.87213 7.51078 3.28172 7.42925C3.6913 7.34772 4.11587 7.38949 4.50172 7.54927C4.88757 7.70905 5.21737 7.97967 5.4494 8.3269C5.68144 8.67413 5.80529 9.08238 5.80529 9.5C5.80466 10.0596 5.58212 10.5962 5.18647 10.992C4.79082 11.3878 4.25435 11.6105 3.69471 11.6114ZM15.3053 17.4167C14.8877 17.4167 14.4795 17.2928 14.1323 17.0608C13.7851 16.8288 13.5144 16.4991 13.3546 16.1133C13.1948 15.7275 13.153 15.303 13.2345 14.8934C13.316 14.4838 13.517 14.1076 13.8123 13.8123C14.1076 13.517 14.4838 13.316 14.8934 13.2345C15.3029 13.153 15.7275 13.1948 16.1133 13.3546C16.4991 13.5144 16.8288 13.7851 17.0608 14.1323C17.2928 14.4795 17.4167 14.8877 17.4167 15.3053C17.4162 15.8651 17.1937 16.4019 16.7978 16.7978C16.4019 17.1937 15.8651 17.4162 15.3053 17.4167Z" fill="black"/>
</g>
<defs>
<clipPath id="clip0_150_121">
<rect width="19" height="19" fill="white"/>
</clipPath>
</defs>
</svg>
