<svg width="43" height="43" viewBox="0 0 43 43" fill="none" xmlns="http://www.w3.org/2000/svg">
<circle cx="21.5" cy="21.5" r="21.085" stroke="white" stroke-width="0.829932"/>
<g clip-path="url(#clip0_743_18)">
<path d="M27.0417 11.875H15.9583C14.9089 11.8764 13.9028 12.3377 13.1608 13.1579C12.4187 13.9781 12.0013 15.0901 12 16.25V26.75C12.0013 27.9099 12.4187 29.0219 13.1608 29.842C13.9028 30.6622 14.9089 31.1236 15.9583 31.125H27.0417C28.0911 31.1236 29.0972 30.6622 29.8392 29.842C30.5813 29.0219 30.9987 27.9099 31 26.75V16.25C30.9987 15.0901 30.5813 13.9781 29.8392 13.1579C29.0972 12.3377 28.0911 11.8764 27.0417 11.875ZM15.9583 13.625H27.0417C27.5157 13.626 27.9786 13.7838 28.3708 14.078C28.7631 14.3723 29.0666 14.7895 29.2425 15.2761L23.1799 21.9777C22.7338 22.4689 22.1297 22.7446 21.5 22.7446C20.8703 22.7446 20.2662 22.4689 19.8201 21.9777L13.7575 15.2761C13.9334 14.7895 14.2369 14.3723 14.6292 14.078C15.0214 13.7838 15.4843 13.626 15.9583 13.625ZM27.0417 29.375H15.9583C15.3284 29.375 14.7244 29.0984 14.279 28.6061C13.8336 28.1138 13.5833 27.4462 13.5833 26.75V17.5625L18.7007 23.215C19.4437 24.0342 20.4505 24.4943 21.5 24.4943C22.5495 24.4943 23.5563 24.0342 24.2993 23.215L29.4167 17.5625V26.75C29.4167 27.4462 29.1664 28.1138 28.721 28.6061C28.2756 29.0984 27.6716 29.375 27.0417 29.375Z" fill="white"/>
</g>
<defs>
<clipPath id="clip0_743_18">
<rect width="19" height="21" fill="white" transform="translate(12 11)"/>
</clipPath>
</defs>
</svg>
