<svg width="26" height="21" viewBox="0 0 26 21" fill="none" xmlns="http://www.w3.org/2000/svg">
<path d="M22.8347 5.2815C22.8494 5.50223 22.8494 5.724 22.8494 5.94682C22.8494 12.7537 17.6671 20.6025 8.19366 20.6025V20.5983C5.39538 20.6025 2.65462 19.8012 0.298828 18.2896C0.705757 18.3388 1.11478 18.3629 1.52484 18.3639C3.84507 18.366 6.09835 17.5877 7.92168 16.1546C5.71757 16.1127 3.7844 14.6754 3.10967 12.5769C3.88168 12.7255 4.67671 12.6951 5.43513 12.4891C3.03121 12.0037 1.30307 9.89162 1.30307 7.43959C1.30307 7.41762 1.30307 7.39565 1.30307 7.37473C2.01965 7.77433 2.82095 7.99506 3.64108 8.01912C1.37735 6.50752 0.678558 3.49688 2.0458 1.14317C4.66102 4.36095 8.52004 6.31713 12.6615 6.5253C12.2462 4.73649 12.8142 2.8619 14.1511 1.60345C16.2255 -0.347502 19.4883 -0.247078 21.4392 1.82732C22.5931 1.60032 23.6988 1.17665 24.7104 0.577241C24.3254 1.76978 23.521 2.7824 22.4456 3.42679C23.4676 3.3044 24.4645 3.03137 25.405 2.61502C24.7135 3.6496 23.8432 4.55238 22.8347 5.2815Z" fill="white"/>
</svg>
