<svg width="26" height="26" viewBox="0 0 26 26" fill="none" xmlns="http://www.w3.org/2000/svg">
<g clip-path="url(#clip0_9_265)">
<path d="M22.8348 7.46607C22.8494 7.6868 22.8494 7.90857 22.8494 8.13139C22.8494 14.9383 17.6671 22.7871 8.19372 22.7871V22.7829C5.39543 22.7871 2.65467 21.9858 0.298882 20.4742C0.70581 20.5234 1.11483 20.5474 1.5249 20.5485C3.84512 20.5506 6.0984 19.7723 7.92174 18.3391C5.71762 18.2973 3.78445 16.86 3.10972 14.7615C3.88174 14.91 4.67677 14.8797 5.43518 14.6736C3.03127 14.1882 1.30313 12.0762 1.30313 9.62416C1.30313 9.60219 1.30313 9.58022 1.30313 9.5593C2.0197 9.9589 2.821 10.1796 3.64114 10.2037C1.3774 8.69209 0.678612 5.68145 2.04585 3.32775C4.66107 6.54552 8.5201 8.5017 12.6616 8.70987C12.2463 6.92106 12.8143 5.04647 14.1512 3.78802C16.2256 1.83707 19.4883 1.93749 21.4393 4.01189C22.5931 3.78489 23.6989 3.36122 24.7104 2.76181C24.3255 3.95435 23.521 4.96697 22.4456 5.61136C23.4677 5.48897 24.4646 5.21594 25.405 4.79959C24.7136 5.83417 23.8432 6.73695 22.8348 7.46607Z" fill="black"/>
</g>
<defs>
<clipPath id="clip0_9_265">
<rect width="25.1061" height="25.1061" fill="white" transform="translate(0.298889 0.034668)"/>
</clipPath>
</defs>
</svg>
