<svg width="76" height="75" viewBox="0 0 76 75" fill="none" xmlns="http://www.w3.org/2000/svg">
<rect width="76" height="75" rx="16" fill="black"/>
<path d="M46.5546 40.8091C46.3417 40.6893 46.1004 40.5535 45.8097 40.3786C45.6474 40.2806 45.4434 40.1466 45.2273 40.0048C44.1177 39.2764 43.2769 38.761 42.5612 38.761C42.3935 38.761 42.235 38.7893 42.0904 38.8451C41.4634 39.0866 40.9485 39.7316 40.4506 40.3554C40.2681 40.5839 40.0069 40.9111 39.8484 41.0573C39.2197 40.943 37.8937 40.1216 36.4627 38.6907C35.0301 37.258 34.2085 35.9305 34.0957 35.3033C34.2418 35.1442 34.5715 34.8811 34.8014 34.6975C35.4228 34.2014 36.0654 33.6884 36.3082 33.0633C36.6179 32.2601 36.0503 31.2996 35.1487 29.9261C35.0069 29.71 34.8728 29.5058 34.7756 29.3448C34.6 29.0529 34.4642 28.8115 34.3445 28.5987C33.8529 27.7251 33.5281 27.1477 32.3078 27.1477C31.5157 27.1477 30.3959 27.8961 29.6373 28.6384C28.5349 29.7173 27.9277 30.963 27.9277 32.1484C27.9298 35.3678 29.7266 39.0578 32.8574 42.2757C32.8627 42.2811 32.8681 42.2825 32.8737 42.2879C36.0916 45.4187 39.7836 47.2094 43.0029 47.2094H43.0042C44.188 47.2094 45.434 46.6091 46.5129 45.5073C47.2557 44.7489 48.0052 43.6372 48.0052 42.8456C48.0053 41.6254 47.4282 41.3007 46.5546 40.8091ZM43.0033 45.546C40.261 45.544 36.9158 43.8821 34.0533 41.1003C31.2712 38.2375 29.6093 34.892 29.6075 32.15C29.6075 30.4914 31.7599 28.9145 32.3227 28.828C32.4377 28.8285 32.498 28.8353 32.5267 28.8402C32.6011 28.9259 32.749 29.1887 32.8807 29.4228C32.9999 29.6346 33.1483 29.8983 33.3373 30.2123C33.4515 30.4016 33.5939 30.6185 33.7447 30.8481C34.03 31.2828 34.6035 32.1566 34.7002 32.5296C34.5385 32.7584 34.0368 33.1589 33.7536 33.3849C33.0288 33.9637 32.4028 34.4634 32.4028 35.1696C32.4045 36.8755 34.6018 39.2052 35.2752 39.8786C35.9486 40.552 38.2783 42.7493 39.9878 42.751C40.6895 42.7487 41.1871 42.1253 41.7634 41.4034C41.9907 41.1188 42.3935 40.6142 42.6233 40.4533C42.9959 40.5493 43.8707 41.1235 44.3058 41.4091C44.5354 41.5598 44.7522 41.7022 44.9426 41.8171C45.2556 42.0054 45.5192 42.1538 45.7311 42.273C45.9651 42.4047 46.228 42.5527 46.3137 42.6271C46.3186 42.6557 46.3253 42.716 46.3259 42.8309C46.2388 43.3933 44.6613 45.544 43.0033 45.546Z" fill="white"/>
<path d="M54.6652 37.5804C54.6062 33.0418 52.7844 28.753 49.5356 25.5041C46.2267 22.1953 41.8591 20.373 37.2371 20.373C32.7755 20.373 28.6016 22.0898 25.4843 25.207C22.718 27.9733 21.0209 31.6628 20.7052 35.5958C20.4058 39.3274 21.3557 43.1037 23.3842 46.2788L20.6142 53.7662C20.498 54.0805 20.5796 54.4338 20.8221 54.6651C20.9814 54.8172 21.1901 54.8974 21.4021 54.8974C21.5126 54.8974 21.6241 54.8655 21.7298 54.8205L28.944 51.7506C31.698 53.4647 34.8471 54.3481 38.0807 54.3481H38.081C42.5419 54.3481 46.7157 52.6518 49.8326 49.5349C53.0079 46.3595 54.7242 42.1271 54.6652 37.5804ZM48.6447 48.3676C45.8449 51.1675 42.0931 52.7093 38.0806 52.7092C35.0258 52.7092 32.0538 51.8151 29.4857 50.1234C29.3465 50.0317 29.1856 49.985 29.0237 49.985C28.9126 49.985 28.8011 50.007 28.6958 50.0517L22.8643 52.5251L25.1067 46.4638C25.2005 46.2101 25.1664 45.9267 25.0152 45.7026C20.8935 39.5965 21.5904 31.4764 26.672 26.3948C29.472 23.5948 33.2241 22.0527 37.2371 22.0527C41.4104 22.0527 45.3563 23.7002 48.3478 26.6918C51.2853 29.6292 52.9323 33.5039 52.9856 37.6022C53.0387 41.6921 51.4971 45.5153 48.6447 48.3676Z" fill="white"/>
</svg>
