<svg width="76" height="75" viewBox="0 0 76 75" fill="none" xmlns="http://www.w3.org/2000/svg">
<rect width="76" height="75" rx="16" fill="black"/>
<g clip-path="url(#clip0_746_20)">
<path d="M47.5677 42.5078L47.5679 42.5079L55.0568 47.5021C56.0475 48.1609 56.3447 49.4825 55.7311 50.502L53.8483 53.6313C53.8483 53.6313 53.8483 53.6314 53.8483 53.6314C53.2636 54.6267 52.316 55.3568 51.2045 55.6684L51.204 55.6685C50.255 55.9251 49.2759 56.053 48.2928 56.0488M47.5677 42.5078L48.2931 55.9988M47.5677 42.5078C46.5956 41.8647 45.2926 42.0763 44.5739 42.994L44.5738 42.9942L42.3923 45.7989L42.392 45.7994C42.1267 46.1493 41.6444 46.2507 41.2606 46.0375L41.2604 46.0375L40.8455 45.8087L40.8452 45.8086L40.845 45.8085C39.4732 45.0607 37.7656 44.13 34.321 40.6841C30.8776 37.2395 29.9444 35.5306 29.1968 34.1615L29.1959 34.1599L29.1958 34.1598L28.9683 33.7448L28.968 33.7443C28.7519 33.3605 28.8514 32.8762 29.2014 32.6087L29.2018 32.6085L32.0047 30.4277L32.0048 30.4276C32.9222 29.7088 33.1341 28.4061 32.4917 27.4337L32.4916 27.4336L27.4974 19.9447C26.839 18.9543 25.5181 18.6571 24.4989 19.2697L21.3677 21.1507M47.5677 42.5078L21.3677 21.1507M48.2928 56.0488L48.2931 55.9988M48.2928 56.0488C48.2929 56.0488 48.293 56.0488 48.2931 56.0488V55.9988M48.2928 56.0488C44.0224 56.0487 37.8244 53.8044 29.5101 45.4907L29.5454 45.4554M48.2931 55.9988C44.0411 55.9988 37.855 53.7643 29.5454 45.4554M29.5454 45.4554L29.5101 45.4907C19.0577 35.0371 18.1961 27.9282 19.3305 23.7948L19.3306 23.7945C19.6425 22.6832 20.3725 21.7358 21.3675 21.1508M29.5454 45.4554L21.3675 21.1508M21.3675 21.1508C21.3676 21.1507 21.3676 21.1507 21.3677 21.1507M21.3675 21.1508L21.3677 21.1507M54.583 49.8178L54.583 49.8177C54.8297 49.4084 54.7103 48.8775 54.3122 48.6132L54.3121 48.6132L46.824 43.619C46.4333 43.361 45.91 43.4458 45.6208 43.814C45.6208 43.814 45.6208 43.8141 45.6207 43.8141L43.4403 46.6172C43.4403 46.6173 43.4402 46.6174 43.4401 46.6174C42.7726 47.4901 41.565 47.7393 40.6066 47.2021C40.6066 47.202 40.6065 47.202 40.6065 47.202L40.2019 46.979C38.7537 46.1891 36.9524 45.2066 33.3718 41.6267C29.7914 38.0468 28.8089 36.2449 28.0189 34.7961L54.583 49.8178ZM54.583 49.8178L52.7043 52.9494L52.704 52.9499C52.2954 53.6491 51.6321 54.1632 50.853 54.3846C47.085 55.419 40.4759 54.5703 30.4532 44.5476C20.4304 34.5248 19.5819 27.9163 20.6163 24.1477C20.8379 23.3677 21.3527 22.7036 22.0528 22.2944L22.0528 22.2944L22.0533 22.2941L25.1849 20.4154L25.1849 20.4154C25.5943 20.169 26.125 20.2884 26.3895 20.6862L26.3895 20.6863L29.1024 24.7594L29.1025 24.7594L31.3794 28.1744C31.6377 28.5651 31.5528 29.0886 31.1843 29.3777L28.3812 31.5581C28.3812 31.5581 28.3811 31.5582 28.3811 31.5582C27.5083 32.2257 27.2591 33.4333 27.7963 34.3917C27.7964 34.3918 27.7964 34.3919 27.7965 34.3919L28.0188 34.7959L28.0188 34.796L54.583 49.8178Z" fill="white" stroke="white" stroke-width="0.1"/>
<path d="M51.7306 35.6516V35.6516C51.7234 29.157 46.4603 23.8938 39.9657 23.8867H39.9657C39.5975 23.8867 39.2991 24.1851 39.2991 24.5533C39.2991 24.9214 39.5975 25.2198 39.9656 25.2198C45.7243 25.2262 50.391 29.893 50.3975 35.6517C50.3975 36.0198 50.6959 36.3182 51.064 36.3182C51.4322 36.3182 51.7306 36.0198 51.7306 35.6516Z" fill="white" stroke="white" stroke-width="0.1"/>
<path d="M48.0311 35.6517V35.6516C48.026 31.1993 44.418 27.5913 39.9657 27.5862H39.9657C39.5975 27.5862 39.2991 27.8846 39.2991 28.2528C39.2991 28.6209 39.5975 28.9193 39.9656 28.9193C43.682 28.9237 46.6936 31.9353 46.698 35.6517C46.6981 36.0198 46.9965 36.3182 47.3646 36.3182C47.7327 36.3182 48.0311 36.0198 48.0311 35.6517Z" fill="white" stroke="white" stroke-width="0.1"/>
<path d="M44.3317 35.6516V35.6516C44.3289 33.2415 42.3758 31.2883 39.9657 31.2856H39.9657C39.5975 31.2856 39.2991 31.584 39.2991 31.9522C39.2991 32.3203 39.5975 32.6187 39.9656 32.6187C41.6398 32.6207 42.9965 33.9774 42.9986 35.6517C42.9986 36.0198 43.2971 36.3182 43.6651 36.3182C44.0332 36.3182 44.3317 36.0198 44.3317 35.6516Z" fill="white" stroke="white" stroke-width="0.1"/>
</g>
<defs>
<clipPath id="clip0_746_20">
<rect width="37" height="37" fill="white" transform="translate(19 19)"/>
</clipPath>
</defs>
</svg>
