<svg width="76" height="75" viewBox="0 0 76 75" fill="none" xmlns="http://www.w3.org/2000/svg">
<rect width="76" height="75" rx="16" fill="black"/>
<g clip-path="url(#clip0_746_19)">
<path d="M38.2636 39.9605C36.8813 39.9541 35.508 39.7375 34.1908 39.3183C32.0862 38.6142 30.523 36.8325 30.0987 34.6542C29.6344 32.4178 30.4806 30.0532 32.4197 28.1668C32.6277 27.9642 32.8439 27.7701 33.0683 27.5845C35.0537 25.9223 37.7305 25.3447 40.2247 26.0401C42.6394 26.8108 44.3079 29.0176 44.3914 31.551C44.4818 33.0092 44.0065 34.4462 43.0644 35.5629C42.3378 36.4782 41.1605 36.9106 40.0142 36.683C39.5454 36.5858 39.1364 36.3019 38.8813 35.8967C38.6524 35.5031 38.5937 35.0333 38.7187 34.5955C39.258 32.5571 39.8063 29.4592 39.8117 29.4278C39.85 29.2108 40.0012 29.0307 40.2083 28.9554C40.4154 28.8801 40.6469 28.9209 40.8157 29.0626C40.9845 29.2043 41.0649 29.4252 41.0266 29.6423C41.0037 29.7711 40.4638 32.8225 39.9113 34.9108C39.8718 35.0265 39.8817 35.1533 39.9386 35.2615C40.0239 35.3795 40.1526 35.4588 40.2963 35.4819C40.998 35.599 41.7068 35.3175 42.137 34.7508C42.8686 33.8756 43.2352 32.7523 43.1607 31.6139C43.1004 29.5974 41.778 27.8369 39.8582 27.2171C37.7625 26.6407 35.5175 27.1331 33.8555 28.5337C33.6573 28.6981 33.4646 28.8703 33.2797 29.0504C32.3211 29.9829 30.7902 31.9179 31.306 34.403C31.6526 36.1393 32.8927 37.5622 34.5652 38.1428C37.4574 39.0654 41.6132 39.1765 43.8029 36.4539C44.018 36.1948 44.4012 36.1562 44.6636 36.3672C44.9261 36.5782 44.9708 36.9607 44.764 37.2265C43.1448 39.2401 40.6809 39.9605 38.2636 39.9605Z" fill="white"/>
<path d="M36.1525 36.7632C35.5007 36.7744 34.8649 36.5607 34.3522 36.158C33.1686 35.2107 33.136 33.5651 33.4679 32.4444C33.5796 32.0712 33.7297 31.7106 33.9156 31.3682C34.3783 30.4347 35.1182 29.6669 36.0339 29.1699C37.1744 28.5781 38.5677 28.8025 39.4647 29.7224C39.9097 30.2101 40.2449 30.7876 40.4477 31.4158C40.555 31.7347 40.3871 32.0807 40.0701 32.1936C39.7532 32.3065 39.4043 32.1445 39.286 31.8296C39.1398 31.3654 38.8968 30.9375 38.573 30.5742C38.05 30.0394 37.2352 29.9177 36.5788 30.2764C35.892 30.6637 35.3401 31.2518 34.9971 31.9617C34.8529 32.2277 34.7365 32.5078 34.6496 32.7976C34.4099 33.6082 34.4626 34.6661 35.1238 35.1956C35.8468 35.7762 37.0663 35.5307 37.7525 34.9388C38.2639 34.4784 38.7033 33.9439 39.056 33.3532C39.1702 33.1618 39.3788 33.0469 39.6016 33.0527C39.8244 33.0586 40.0267 33.1841 40.1308 33.3812C40.2349 33.5783 40.2245 33.8162 40.1037 34.0035C39.6859 34.6996 39.1658 35.3289 38.5608 35.8703C37.8865 36.4393 37.0347 36.7551 36.1525 36.7632Z" fill="white"/>
<path d="M54.15 56H20.85C19.8287 55.9989 19.0011 55.1713 19 54.15V31.3333C19 31.0942 19.1383 30.8766 19.3548 30.7751C19.5712 30.6735 19.8269 30.7063 20.0108 30.8591L35.1421 43.4345C36.5112 44.5652 38.4902 44.5648 39.8589 43.4336L54.9887 30.8591C55.1726 30.706 55.4285 30.673 55.6451 30.7746C55.8618 30.8762 56.0001 31.094 56 31.3333V54.15C55.9989 55.1713 55.1713 55.9989 54.15 56ZM20.2333 32.6476V54.15C20.2338 54.4904 20.5096 54.7662 20.85 54.7667H54.15C54.4904 54.7664 54.7664 54.4905 54.7667 54.15V32.6476L40.6463 44.3828C38.8206 45.8916 36.1808 45.892 34.3546 44.3837L20.2333 32.6476Z" fill="white"/>
<path d="M19.6173 31.95C19.3487 31.9502 19.1108 31.7766 19.0292 31.5207C18.9476 31.2648 19.041 30.9855 19.2602 30.8302L24.8102 26.8959C25.088 26.7033 25.4691 26.7703 25.6646 27.0462C25.8601 27.322 25.797 27.7038 25.5231 27.9021L19.9731 31.8365C19.8692 31.9104 19.7448 31.9501 19.6173 31.95Z" fill="white"/>
<path d="M55.3826 31.95C55.255 31.9501 55.1306 31.9104 55.0267 31.8365L49.4767 27.9021C49.2029 27.7038 49.1398 27.322 49.3352 27.0462C49.5307 26.7703 49.9118 26.7033 50.1897 26.8959L55.7397 30.8302C55.9588 30.9855 56.0522 31.2648 55.9706 31.5207C55.889 31.7766 55.6512 31.9502 55.3826 31.95Z" fill="white"/>
<path d="M43.1977 23.3167C43.07 23.3167 42.9455 23.2771 42.8414 23.2032L39.8938 21.1127C38.5255 19.9564 36.526 19.9443 35.1438 21.084L32.1592 23.2032C31.9794 23.3307 31.7453 23.3526 31.545 23.2606C31.3448 23.1687 31.2088 22.9769 31.1882 22.7575C31.1677 22.5381 31.2658 22.3244 31.4456 22.1969L34.3932 20.1064C36.2146 18.6172 38.8364 18.629 40.6443 20.1347L43.5549 22.1967C43.7743 22.352 43.8678 22.6314 43.7861 22.8874C43.7045 23.1434 43.4664 23.3171 43.1977 23.3167Z" fill="white"/>
<path d="M20.0176 55.667C19.7577 55.6672 19.5256 55.5045 19.4372 55.2601C19.3488 55.0158 19.4231 54.7422 19.623 54.5761L33.6953 42.8841C33.8644 42.7403 34.0977 42.6985 34.3062 42.7746C34.5147 42.8507 34.6662 43.033 34.7029 43.2519C34.7396 43.4708 34.6559 43.6926 34.4836 43.8325L20.4112 55.5245C20.3008 55.6166 20.1615 55.667 20.0176 55.667Z" fill="white"/>
<path d="M54.9815 55.667C54.8378 55.6671 54.6986 55.6167 54.5883 55.5246L40.516 43.8326C40.3437 43.6926 40.2599 43.4709 40.2966 43.252C40.3333 43.0331 40.4848 42.8508 40.6933 42.7746C40.9018 42.6985 41.1351 42.7403 41.3042 42.8841L55.3762 54.5761C55.5761 54.7422 55.6504 55.0158 55.562 55.2602C55.4735 55.5046 55.2414 55.6672 54.9815 55.667Z" fill="white"/>
<path d="M49.8331 36.5627C49.4926 36.5627 49.2165 36.2866 49.2165 35.946V23.3215C49.2147 23.3344 49.19 23.317 49.1486 23.3167H25.851C25.8237 23.315 25.797 23.3246 25.777 23.3432L25.7831 35.946C25.7831 36.2866 25.507 36.5627 25.1665 36.5627C24.8259 36.5627 24.5498 36.2866 24.5498 35.946V23.3167C24.5697 22.6173 25.1515 22.0658 25.851 22.0833H49.1486C49.848 22.0659 50.4298 22.6173 50.4498 23.3167V35.946C50.4498 36.2866 50.1737 36.5627 49.8331 36.5627Z" fill="white"/>
</g>
<defs>
<clipPath id="clip0_746_19">
<rect width="37" height="37" fill="white" transform="translate(19 19)"/>
</clipPath>
</defs>
</svg>
