<svg width="76" height="75" viewBox="0 0 76 75" fill="none" xmlns="http://www.w3.org/2000/svg">
<rect width="76" height="75" rx="16" fill="black"/>
<path d="M23.1669 34.2499H32.4835C32.8798 34.2499 33.2002 33.9289 33.2002 33.5333C33.2002 33.1377 32.8798 32.8166 32.4835 32.8166H23.1669C22.7705 32.8166 22.4502 33.1377 22.4502 33.5333C22.4502 33.9289 22.7705 34.2499 23.1669 34.2499Z" fill="white"/>
<path d="M41.8002 37.1166H23.1669C22.7705 37.1166 22.4502 37.4376 22.4502 37.8332C22.4502 38.2288 22.7705 38.5499 23.1669 38.5499H41.8002C42.1965 38.5499 42.5169 38.2288 42.5169 37.8332C42.5169 37.4376 42.1965 37.1166 41.8002 37.1166Z" fill="white"/>
<path d="M41.8002 41.4166H23.1669C22.7705 41.4166 22.4502 41.7377 22.4502 42.1333C22.4502 42.5289 22.7705 42.8499 23.1669 42.8499H41.8002C42.1965 42.8499 42.5169 42.5289 42.5169 42.1333C42.5169 41.7377 42.1965 41.4166 41.8002 41.4166Z" fill="white"/>
<path d="M54.7516 17.8168L30.2832 17.7666C27.9397 17.7666 26.0333 19.6729 26.0333 22.0164V25.6886L20.2498 25.7008C17.9063 25.7008 16 27.6071 16 29.9506V45.1017C16 47.4452 17.9063 49.3508 20.2498 49.3508H24.6V56.5175C24.6 56.8134 24.782 57.0793 25.0587 57.1861C25.1425 57.2184 25.2299 57.2341 25.3167 57.2341C25.5145 57.2341 25.7087 57.1517 25.847 56.9998L32.8015 49.3494L44.7168 49.3006C47.0603 49.3006 48.9667 47.3943 48.9667 45.0515V44.9705L52.7363 49.1172C52.8746 49.2691 53.0689 49.3515 53.2667 49.3515C53.3534 49.3515 53.4408 49.3358 53.5247 49.3035C53.8013 49.1967 53.9833 48.9308 53.9833 48.6349V41.4682H54.7502C57.0937 41.4682 59 39.5619 59 37.2191V22.0666C59 19.7238 57.0944 17.8175 54.7516 17.8168ZM47.5333 45.0508C47.5333 46.6038 46.2698 47.8666 44.714 47.8666L32.4805 47.9168C32.2798 47.9175 32.0877 48.0028 31.953 48.1511L26.0333 54.6635V48.6334C26.0333 48.2378 25.713 47.9168 25.3167 47.9168H20.2498C18.6968 47.9168 17.4333 46.6533 17.4333 45.101V29.9499C17.4333 28.3969 18.6968 27.1334 20.2513 27.1334L26.75 27.1198C26.7507 27.1198 26.7507 27.1198 26.7514 27.1198L44.7168 27.0825C46.2698 27.0825 47.5333 28.346 47.5333 29.899V43.1151V45.0508ZM57.5667 37.2176C57.5667 38.7707 56.3032 40.0334 54.7502 40.0334H53.2667C52.8703 40.0334 52.55 40.3545 52.55 40.7501V46.7801L48.9667 42.8385V29.8998C48.9667 27.5563 47.0603 25.6499 44.7154 25.6499L27.4667 25.685V22.0157C27.4667 20.4627 28.7301 19.1992 30.2817 19.1992L54.7494 19.2494C54.7502 19.2494 54.7502 19.2494 54.7509 19.2494C56.3039 19.2494 57.5674 20.5129 57.5674 22.0659L57.5667 37.2176Z" fill="white"/>
</svg>
