<svg width="25" height="25" viewBox="0 0 25 25" fill="none" xmlns="http://www.w3.org/2000/svg">
<path fill-rule="evenodd" clip-rule="evenodd" d="M21.1316 3.55311C18.866 1.28549 15.8539 0.0356767 12.6452 0.034668C6.03296 0.034668 0.651392 5.41523 0.648366 12.0305C0.647357 14.1448 1.20014 16.2086 2.25023 18.0284L0.547493 24.2442L6.90652 22.5757C8.65868 23.532 10.6318 24.0354 12.6391 24.0364H12.6442C19.2554 24.0364 24.638 18.6548 24.641 12.0396C24.643 8.83482 23.3962 5.81973 21.1316 3.55311ZM12.6452 22.0098H12.6411C10.8517 22.0098 9.09748 21.5287 7.56623 20.6198L7.20208 20.4039L3.42842 21.3935L4.43614 17.7137L4.19909 17.3364C3.20045 15.7487 2.67389 13.9138 2.6749 12.0305C2.67692 6.5329 7.15063 2.0602 12.6502 2.0602C15.3133 2.0602 17.8169 3.09919 19.6992 4.98349C21.5815 6.86881 22.6175 9.37348 22.6165 12.0375C22.6134 17.5371 18.1407 22.0098 12.6452 22.0098ZM18.1145 14.5422C17.8149 14.3919 16.3412 13.6666 16.0658 13.5668C15.7914 13.4669 15.5917 13.4165 15.3909 13.7161C15.1902 14.0157 14.6172 14.6915 14.4417 14.8922C14.2672 15.092 14.0917 15.1172 13.7921 14.9669C13.4925 14.8166 12.5261 14.5009 11.3812 13.479C10.4905 12.6841 9.88832 11.7026 9.71381 11.402C9.5393 11.1014 9.69566 10.94 9.84495 10.7907C9.98012 10.6566 10.1445 10.4407 10.2948 10.2652C10.4462 10.0917 10.4956 9.96662 10.5965 9.76588C10.6963 9.56615 10.6469 9.39063 10.5712 9.24033C10.4956 9.09104 9.89639 7.61527 9.64724 7.01507C9.40413 6.43001 9.157 6.5097 8.9724 6.50062C8.79789 6.49154 8.59816 6.49053 8.39742 6.49053C8.19769 6.49053 7.87288 6.56518 7.59851 6.86578C7.32413 7.16638 6.54943 7.89166 6.54943 9.36642C6.54943 10.8422 7.62373 12.2675 7.77302 12.4673C7.92231 12.667 9.88631 15.6952 12.8933 16.9934C13.6085 17.3021 14.1674 17.4867 14.6021 17.6249C15.3203 17.8529 15.974 17.8206 16.4905 17.7439C17.0664 17.6582 18.2638 17.0186 18.514 16.3186C18.7641 15.6185 18.7641 15.0173 18.6885 14.8932C18.6138 14.7672 18.4141 14.6925 18.1145 14.5422Z" fill="black"/>
</svg>
