<svg width="25" height="26" viewBox="0 0 25 26" fill="none" xmlns="http://www.w3.org/2000/svg">
<path fill-rule="evenodd" clip-rule="evenodd" d="M21.1315 4.36854C18.8659 2.10092 15.8538 0.851106 12.645 0.850098C6.03283 0.850098 0.651262 6.23066 0.648236 12.8459C0.647227 14.9602 1.20001 17.0241 2.2501 18.8438L0.547363 25.0596L6.90639 23.3912C8.65855 24.3474 10.6316 24.8508 12.639 24.8518H12.644C19.2553 24.8518 24.6378 19.4702 24.6409 12.855C24.6429 9.65025 23.3961 6.63516 21.1315 4.36854ZM12.645 22.8253H12.641C10.8515 22.8253 9.09735 22.3441 7.5661 21.4352L7.20195 21.2194L3.42829 22.2089L4.43601 18.5291L4.19896 18.1518C3.20032 16.5641 2.67376 14.7292 2.67477 12.8459C2.67679 7.34833 7.1505 2.87563 12.6501 2.87563C15.3131 2.87563 17.8168 3.91462 19.6991 5.79892C21.5814 7.68424 22.6173 10.1889 22.6163 12.853C22.6133 18.3526 18.1406 22.8253 12.645 22.8253ZM18.1144 15.3576C17.8148 15.2073 16.341 14.4821 16.0656 14.3822C15.7913 14.2823 15.5915 14.2319 15.3908 14.5315C15.1901 14.8311 14.6171 15.5069 14.4416 15.7077C14.2671 15.9074 14.0916 15.9326 13.792 15.7823C13.4924 15.632 12.526 15.3163 11.3811 14.2944C10.4904 13.4996 9.88819 12.5181 9.71368 12.2175C9.53917 11.9169 9.69553 11.7555 9.84482 11.6062C9.97999 11.472 10.1444 11.2561 10.2947 11.0806C10.446 10.9071 10.4954 10.782 10.5963 10.5813C10.6962 10.3816 10.6468 10.2061 10.5711 10.0558C10.4954 9.90647 9.89626 8.4307 9.64711 7.8305C9.404 7.24544 9.15687 7.32513 8.97227 7.31605C8.79776 7.30697 8.59803 7.30596 8.39729 7.30596C8.19756 7.30596 7.87275 7.38061 7.59838 7.68121C7.324 7.98181 6.5493 8.70709 6.5493 10.1819C6.5493 11.6576 7.6236 13.083 7.77289 13.2827C7.92218 13.4824 9.88618 16.5106 12.8932 17.8089C13.6084 18.1175 14.1672 18.3021 14.602 18.4403C15.3202 18.6683 15.9739 18.636 16.4903 18.5593C17.0663 18.4736 18.2637 17.8341 18.5138 17.134C18.764 16.434 18.764 15.8328 18.6883 15.7087C18.6137 15.5826 18.414 15.5079 18.1144 15.3576Z" fill="white"/>
</svg>
