<svg width="42" height="43" viewBox="0 0 42 43" fill="none" xmlns="http://www.w3.org/2000/svg">
<path d="M41.585 21.5C41.585 33.1542 32.3596 42.585 21 42.585C9.64035 42.585 0.414966 33.1542 0.414966 21.5C0.414966 9.8458 9.64035 0.414966 21 0.414966C32.3596 0.414966 41.585 9.8458 41.585 21.5Z" stroke="white" stroke-width="0.829932"/>
<g clip-path="url(#clip0_743_15)">
<path fill-rule="evenodd" clip-rule="evenodd" d="M28.0524 14.7613C26.1807 12.9816 23.6924 12.0008 21.0415 12C15.579 12 11.1332 16.2227 11.1307 21.4145C11.1299 22.959 11.5255 24.4693 12.2799 25.8226C12.3873 26.0153 12.4193 26.2423 12.3581 26.4542L11.4267 29.6846C11.2582 30.2687 11.7858 30.8159 12.3757 30.6689L16.0114 29.7627C16.1978 29.7162 16.3943 29.7405 16.5674 29.8238C17.947 30.4878 19.4793 30.8361 21.0365 30.8369H21.0407C26.5024 30.8369 30.949 26.6133 30.9515 21.4216C30.9532 18.9065 29.9232 16.5402 28.0524 14.7613ZM21.0415 29.2464H21.0382C19.5599 29.2464 18.1107 28.8688 16.8457 28.1555L16.8183 28.1401C16.6427 28.0412 16.4359 28.0132 16.2404 28.062L14.7554 28.4319C14.1656 28.5788 13.6381 28.0317 13.8064 27.4476L14.1615 26.2158C14.2239 25.9994 14.1883 25.7665 14.064 25.5786C13.239 24.3326 12.804 22.8925 12.8049 21.4145C12.8065 17.0999 16.5024 13.5896 21.0457 13.5896C23.2457 13.5896 25.314 14.4051 26.869 15.8839C28.424 17.3635 29.2799 19.3292 29.279 21.42C29.2765 25.7362 25.5815 29.2464 21.0415 29.2464ZM25.5599 23.3857C25.3124 23.2678 24.0949 22.6986 23.8674 22.6202C23.6407 22.5418 23.4757 22.5022 23.3099 22.7373C23.144 22.9725 22.6707 23.5029 22.5257 23.6604C22.3815 23.8172 22.2365 23.837 21.989 23.719C21.7415 23.6011 20.9432 23.3533 19.9974 22.5513C19.2615 21.9275 18.764 21.1572 18.6199 20.9213C18.4757 20.6853 18.6049 20.5587 18.7282 20.4415C18.8399 20.3362 18.9757 20.1668 19.0999 20.0291C19.2249 19.8929 19.2657 19.7947 19.349 19.6372C19.4315 19.4804 19.3907 19.3427 19.3282 19.2247C19.2657 19.1076 18.7707 17.9493 18.5649 17.4783C18.364 17.0191 18.1599 17.0817 18.0074 17.0746C17.8632 17.0674 17.6982 17.0666 17.5324 17.0666C17.3674 17.0666 17.099 17.1252 16.8724 17.3611C16.6457 17.5971 16.0057 18.1663 16.0057 19.3237C16.0057 20.4819 16.8932 21.6005 17.0165 21.7573C17.1399 21.914 18.7624 24.2906 21.2465 25.3095C21.8374 25.5517 22.299 25.6966 22.6582 25.8051C23.2515 25.984 23.7915 25.9586 24.2182 25.8985C24.694 25.8312 25.6832 25.3293 25.8899 24.7798C26.0965 24.2304 26.0965 23.7586 26.034 23.6612C25.9724 23.5623 25.8074 23.5037 25.5599 23.3857Z" fill="white"/>
</g>
<defs>
<clipPath id="clip0_743_15">
<rect width="20" height="19" fill="white" transform="translate(11 12)"/>
</clipPath>
</defs>
</svg>
