<svg width="102" height="44" viewBox="0 0 102 44" fill="none" xmlns="http://www.w3.org/2000/svg">
<path d="M9.39515 38.9388C9.35968 38.2358 9.32422 37.7086 9.28876 37.1463C9.07599 33.3152 9.00507 29.449 9.28876 25.618C9.43061 23.9309 9.57245 22.2438 9.89161 20.5919C10.1398 19.2914 10.6008 17.991 10.9555 16.6905C11.0619 16.2688 11.3455 16.1985 11.7356 16.3742C12.9059 16.8663 13.8279 17.7098 14.5726 18.6939C15.5655 20.0295 16.2038 21.5409 16.4166 23.2279C16.452 23.3685 16.523 23.5091 16.5939 23.6849C17.7996 22.279 17.7641 20.6622 16.5939 19.2563C15.5655 18.0613 14.2889 17.2178 12.8349 16.6203C11.4519 16.0227 10.3881 14.7926 10.8491 13.0352C10.8845 12.8595 10.7782 12.6135 10.6718 12.4377C9.85615 11.3833 9.50153 10.118 9.21784 8.8527C9.21784 8.81755 9.04053 7.79828 9.04053 7.69284C9.2533 8.2552 9.28876 8.99329 10.2108 9.66109C10.7427 10.0126 11.2746 10.1532 11.8775 10.0477C13.225 9.80168 14.5726 9.62594 15.9201 9.90712C16.4875 10.0126 16.984 10.364 17.5159 10.6101C17.7641 10.7155 18.0478 10.8561 18.2961 10.8912C21.6295 11.2779 24.9629 11.6293 28.2963 11.9808C28.7927 12.0511 29.8211 12.1917 29.8211 12.2268C29.3247 12.2971 28.8637 12.3323 28.3672 12.4026C25.1756 12.7892 21.9841 13.1407 18.7925 13.5624C18.4379 13.5976 18.0833 13.7382 17.7641 13.8788C16.7712 14.3005 16.6648 15.3549 17.5514 15.9876C19.2535 17.2529 20.3883 18.8345 20.7075 20.9434C21.0266 23.1225 20.5301 25.161 19.2535 26.9184C18.5443 27.9025 17.6577 28.7461 16.8776 29.695C16.6648 29.9762 16.523 30.3628 16.4166 30.7143C16.0974 31.839 15.8847 32.9989 15.4591 34.0533C14.8917 35.4592 14.2179 36.8299 13.4733 38.2007C12.3739 40.2744 9.35968 43.9648 9.28876 44C9.28876 43.8594 9.2533 43.754 9.2533 43.6134C9.2533 41.61 9.57245 39.6769 10.1044 37.7438C10.7072 35.5998 11.5938 33.6315 13.0477 31.9445C13.686 31.2064 14.4662 30.6089 15.2463 29.9762C15.6364 29.6599 15.8492 29.4139 15.8137 28.8867C15.8137 27.9377 15.8847 26.9887 15.8847 26.0397C15.8847 25.864 15.8492 25.7234 15.8492 25.4071C15.2463 25.9343 14.7499 26.356 14.2889 26.8481C12.6931 28.4649 11.2746 30.1871 10.4945 32.3662C10.2108 33.1043 10.0689 33.9127 9.96253 34.7211C9.82069 35.9161 9.46607 38.7279 9.39515 38.9388ZM16.7357 28.5C16.7712 28.5352 16.8067 28.5352 16.8776 28.5703C17.3386 28.0431 17.7996 27.5511 18.2251 26.9887C19.75 24.9502 20.4238 22.7007 19.7145 20.1701C19.2535 18.5885 18.2251 17.4286 16.913 16.4797C16.0265 15.847 15.8847 14.406 16.6648 13.703C17.0904 13.3164 17.6932 13.0352 18.2606 12.8595C18.9698 12.6486 19.75 12.6135 20.4592 12.5432C21.0266 12.4729 21.594 12.4026 22.1614 12.3323C22.1614 12.2971 22.1614 12.2268 22.1614 12.1917C21.4522 12.1214 20.7075 12.0511 19.9982 11.9457C19.1826 11.8402 18.367 11.7699 17.5868 11.6293C17.0194 11.5239 16.452 11.2779 15.8492 11.2076C14.2179 10.9967 12.8704 11.559 11.9129 12.8946C11.5938 13.3164 11.5229 13.8085 11.6647 14.3708C11.9129 15.3198 12.6576 15.7064 13.4378 16.0579C14.8208 16.6905 16.0974 17.4638 17.0904 18.6588C18.6507 20.4865 18.8634 22.3493 17.3386 24.1769C16.8067 24.8096 16.7357 25.3368 16.7357 26.0046C16.7357 26.0749 16.7357 26.1803 16.7357 26.2506C16.7357 26.9536 16.7357 27.7268 16.7357 28.5ZM9.998 31.2064C10.4235 30.4683 10.7782 29.8708 11.1328 29.3084C12.3385 27.4808 13.8279 25.9343 15.53 24.5635C15.6719 24.4581 15.8137 24.2472 15.7783 24.1066C15.4591 22.9468 15.2109 21.7518 14.7499 20.627C14.2179 19.2914 13.2959 18.237 12.0548 17.4638C11.7002 17.2529 11.5583 17.288 11.4519 17.7098C11.2392 18.5534 10.9555 19.3617 10.8491 20.1701C10.5654 21.9275 10.3526 23.6849 10.1398 25.4774C10.0335 26.5318 9.998 27.5862 9.998 28.6758C9.998 29.4842 9.998 30.2925 9.998 31.2064ZM10.2817 41.3639C12.764 38.2007 14.679 34.7563 15.4946 30.7495C11.9839 33.4207 10.7782 37.2166 10.2817 41.3639Z" fill="white"/>
<path d="M34.0056 17.8856C33.9347 25.9343 28.2253 32.788 20.2819 34.3696C19.679 34.5102 19.0407 34.5102 18.4024 34.6157C18.0123 34.686 17.9414 34.3696 17.9059 34.1236C17.9059 34.0182 18.1896 33.8424 18.3315 33.8073C23.1188 33.3504 26.9487 31.2064 29.8566 27.4456C31.4878 25.3368 32.4807 22.9116 32.9417 20.2756C33.3318 17.7801 33.19 15.2847 32.3389 12.9298C30.1403 6.88446 25.8494 3.08856 19.3244 2.10443C13.6505 1.22575 8.79227 3.08856 4.89147 7.30623C3.1893 9.16904 2.05453 11.3482 1.34529 13.7733C0.742441 16.0228 0.636055 18.3425 1.0616 20.6271C1.84176 24.915 4.07585 28.3946 7.69295 30.9604C7.79934 31.0306 7.94118 31.1712 7.94118 31.2767C7.94118 31.4524 7.87026 31.6633 7.72841 31.7687C7.65749 31.839 7.40926 31.7687 7.30287 31.6633C5.31701 30.2926 3.72123 28.6055 2.44461 26.5318C1.38075 24.8447 0.671517 22.9819 0.316899 21.0488C-0.0377186 19.2563 -0.108642 17.4286 0.175052 15.5658C0.742441 11.8754 2.2673 8.71212 4.89147 6.07608C7.33833 3.58062 10.3526 1.99899 13.7924 1.33119C17.6932 0.557954 21.3812 1.15546 24.8919 2.94797C28.0126 4.63504 30.4594 7.0602 32.0907 10.2586C32.9772 11.9808 33.5801 13.7733 33.7574 15.6713C33.8283 16.4094 33.9347 17.1475 34.0056 17.8856Z" fill="white"/>
<path d="M51.24 16.9217L45.2824 25.7788H51.24V27.9931H42.1973V25.9546L48.1194 17.0975H42.1973V14.8832H51.24V16.9217Z" fill="white"/>
<path d="M61.559 16.992H56.5234V20.2959H60.9916V22.3695H56.5234V25.8491H61.559V27.9931H53.8638V14.8832H61.559V16.992Z" fill="white"/>
<path d="M72.0204 16.992H66.9848V20.2959H71.453V22.3695H66.9848V25.8491H72.0204V27.9931H64.3252V14.8832H72.0204V16.992Z" fill="white"/>
<path d="M84.9285 26.9387L87.9782 30.3128H84.6803L82.659 27.9228C82.127 28.0634 81.5242 28.1337 80.9568 28.1337C77.2333 28.1337 74.1836 25.3571 74.1836 21.4206C74.1836 17.4841 77.2333 14.7074 80.9568 14.7074C84.7157 14.7074 87.73 17.4841 87.73 21.4206C87.73 23.7754 86.6307 25.7437 84.9285 26.9387ZM80.9568 25.7788C83.3327 25.7788 84.9994 24.0566 84.9994 21.3854C84.9994 18.7142 83.3327 17.0271 80.9568 17.0271C78.5454 17.0271 76.9142 18.7142 76.9142 21.3854C76.8787 24.0566 78.5454 25.7788 80.9568 25.7788Z" fill="white"/>
<path d="M95.0711 14.8832C98.2627 14.8832 99.8584 16.7108 99.8584 18.89C99.8584 20.4716 98.9719 22.0884 96.8442 22.6507L100 27.958H96.9151L94.0072 22.8616H92.7661V27.958H90.1064V14.8832H95.0711ZM94.9647 17.0623H92.7306V20.9285H94.9647C96.4541 20.9285 97.0924 20.1553 97.0924 18.9603C97.1279 17.8004 96.4541 17.0623 94.9647 17.0623Z" fill="white"/>
</svg>
