<svg width="160" height="68" viewBox="0 0 160 68" fill="none" xmlns="http://www.w3.org/2000/svg">
<path d="M15.0176 59.8096C14.9611 58.7035 14.9046 57.8186 14.8482 56.989C14.5093 50.9053 14.3964 44.8769 14.8482 38.7932C15.0741 36.1385 15.2999 33.4838 15.8082 30.8844C16.2035 28.838 16.9376 26.7917 17.5023 24.7454C17.6717 24.0817 18.1235 23.9711 18.7446 24.2476C20.6082 25.0219 22.0764 26.3493 23.2623 27.8978C24.8435 29.9995 25.8599 32.3777 26.1988 35.0324C26.2552 35.2536 26.3682 35.4748 26.4811 35.7513C28.4011 33.5391 28.3446 30.995 26.4811 28.7827C24.8435 26.9023 22.8105 25.575 20.4952 24.6348C18.2929 23.6945 16.5988 21.7588 17.3329 18.9935C17.3893 18.717 17.2199 18.3298 17.0505 18.0533C15.7517 16.3941 15.187 14.4031 14.7352 12.412C14.6788 12.2461 14.3964 10.6975 14.3964 10.5316C14.7352 11.4165 14.7917 12.6333 16.2599 13.6288C17.107 14.1818 17.9541 14.4031 18.9141 14.2371C21.0599 13.85 23.2058 13.5735 25.3517 14.0159C26.2552 14.1818 27.0458 14.7349 27.8929 15.122C28.2882 15.288 28.7399 15.5092 29.1352 15.5645C34.4435 16.1729 39.7517 16.7259 45.0599 17.279C45.8505 17.3896 47.4882 17.6108 47.4882 17.6661C46.6976 17.7768 45.9635 17.8874 45.1729 17.9427C40.0905 18.551 35.0082 19.1041 29.9258 19.7678C29.3611 19.8231 28.7964 20.0443 28.2882 20.2655C26.707 20.9292 26.5376 22.5884 27.9493 23.5839C30.6599 25.575 32.467 28.0638 32.9752 31.3821C33.4835 34.8111 32.6929 38.0189 30.6599 40.7842C29.5305 42.3328 28.1188 43.6602 26.8764 45.1534C26.5376 45.5959 26.3117 46.2043 26.1423 46.7573C25.6341 48.5271 25.2952 50.3522 24.6176 52.0114C23.7141 54.2237 22.5846 56.3806 21.4552 58.5376C19.7046 61.8007 14.9046 67.6079 14.7917 67.6632C14.7917 67.4419 14.7352 67.276 14.7352 67.0548C14.7352 63.9023 15.2435 60.8605 16.0905 57.8186C17.0505 54.4449 18.4623 51.2925 20.7776 48.6931C21.7941 47.5316 23.0364 46.5914 24.2788 45.5959C24.8999 45.0981 25.2388 44.711 25.1823 43.8814C25.1823 42.3881 25.2952 40.8948 25.2952 39.4016C25.2952 39.125 25.2388 38.9038 25.2388 38.4061C24.2788 39.2357 23.4882 39.8993 22.7541 40.6736C20.2129 43.2177 17.9541 45.9277 16.7117 49.3567C16.2599 50.5182 16.0341 51.7902 15.8646 53.0623C15.6388 55.0533 15.1305 59.4225 15.0176 59.8096ZM26.707 43.3836C26.7635 43.4389 26.8199 43.4389 26.9329 43.4942C27.667 42.6647 28.4011 41.8904 29.0788 41.0055C31.507 37.7977 32.5799 34.2581 31.4505 30.2207C30.7164 27.7319 29.0788 25.9068 26.9893 24.4135C25.5776 23.418 25.3517 21.1505 26.5941 20.0443C27.2717 19.436 28.2317 18.9935 29.1352 18.717C30.2646 18.3851 31.507 18.3298 32.6929 18.2192C33.5964 18.1086 34.4999 17.998 35.4035 17.8874C35.4035 17.8321 35.4035 17.7215 35.4035 17.6661C34.2741 17.5555 33.0882 17.4449 31.9588 17.279C30.6599 17.1131 29.3611 17.0025 28.1188 16.7812C27.2152 16.6153 26.3117 16.2282 25.3517 16.1176C22.7541 15.7857 20.6082 16.6706 19.0835 18.7723C18.5752 19.436 18.4623 20.2102 18.6882 21.0951C19.0835 22.5884 20.2693 23.1968 21.5117 23.7499C23.7141 24.7454 25.747 25.9621 27.3846 27.8425C29.8694 30.7185 30.2646 33.6497 27.7799 36.5256C26.9329 37.5212 26.8199 38.3508 26.8199 39.4016C26.8199 39.5122 26.8199 39.6781 26.8199 39.7887C26.707 40.9502 26.707 42.1669 26.707 43.3836ZM15.9776 47.6422C16.6552 46.4808 17.2199 45.5406 17.7846 44.6557C19.7046 41.7797 22.0764 39.3463 24.787 37.1893C25.0129 37.0234 25.2388 36.6916 25.1823 36.4703C24.6741 34.6452 24.2788 32.7648 23.5446 30.995C22.6976 28.8934 21.2293 27.2342 19.2529 26.0174C18.6882 25.6856 18.4623 25.7409 18.2929 26.4046C17.9541 27.7319 17.5023 29.004 17.3329 30.276C16.8811 33.0413 16.5423 35.8067 16.2035 38.6273C16.0341 40.2865 15.9776 41.9457 15.9776 43.6602C15.9211 44.8769 15.9776 46.149 15.9776 47.6422ZM16.4293 63.6258C20.3823 58.6482 23.4317 53.2282 24.787 46.9232C19.1399 51.1265 17.2199 57.0996 16.4293 63.6258Z" fill="black"/>
<path d="M54.2082 26.6258C54.0952 39.291 45.0035 50.0757 32.3541 52.5645C31.3941 52.7857 30.3776 52.7857 29.3611 52.9516C28.7399 53.0623 28.627 52.5645 28.5705 52.1774C28.5705 52.0114 29.0223 51.7349 29.2482 51.6796C36.8717 51.0159 42.9705 47.6422 47.6011 41.7244C50.1988 38.4061 51.7799 34.5899 52.514 30.4419C53.1352 26.5152 52.9093 22.5884 51.554 18.8829C48.0529 9.31488 41.2199 3.28648 30.8293 1.7379C21.7376 0.355235 14.0576 3.28648 7.84582 9.92325C5.13523 12.8545 3.32817 16.2835 2.19876 20.0996C1.18229 23.6392 1.01288 27.3448 1.69052 30.8844C2.98935 37.6318 6.49052 43.1071 12.2505 47.1445C12.4199 47.2551 12.6458 47.4763 12.6458 47.6422C12.6458 47.9188 12.5329 48.2506 12.307 48.4165C12.1941 48.5271 11.7988 48.4165 11.6293 48.2506C8.46699 46.0936 5.92582 43.3836 3.89288 40.1759C2.19876 37.5212 1.06935 34.5899 0.504641 31.5481C-0.0600644 28.7274 -0.173006 25.8515 0.278759 22.9203C1.18229 17.1131 3.61052 12.1355 7.78935 7.98752C11.6858 4.06077 16.4858 1.57198 21.9635 0.521155C28.1752 -0.695587 34.0482 0.244623 39.6388 3.06525C44.7211 5.66465 48.5611 9.48079 51.1588 14.5137C52.5705 17.2237 53.5305 20.0443 53.8129 23.0309C53.9258 24.3582 54.0388 25.4644 54.2082 26.6258Z" fill="black"/>
<path d="M81.6529 16.7259L72.1658 30.6632H81.6529V34.1475H67.2529V30.9397L76.6835 17.0025H67.2529V13.5182H81.6529V16.7259Z" fill="black"/>
<path d="M98.0858 16.8918H90.067V22.0907H97.1823V25.3537H90.067V30.8291H98.0858V34.2028H85.8317V13.5182H98.0858V16.8918Z" fill="black"/>
<path d="M114.745 16.8918H106.726V22.0907H113.841V25.3537H106.726V30.8291H114.745V34.2028H102.491V13.5182H114.745V16.8918Z" fill="black"/>
<path d="M135.3 32.4883L140.156 37.7977H134.905L131.686 34.0369C130.839 34.2581 129.879 34.3687 128.975 34.3687C123.046 34.3687 118.189 29.9995 118.189 23.8052C118.189 17.6108 123.046 13.2416 128.975 13.2416C134.961 13.2416 139.761 17.6108 139.761 23.8052C139.761 27.566 138.011 30.6632 135.3 32.4883ZM128.975 30.7185C132.759 30.7185 135.413 28.0085 135.413 23.8052C135.413 19.6019 132.759 16.9472 128.975 16.9472C125.135 16.9472 122.538 19.6019 122.538 23.8052C122.538 28.0085 125.135 30.7185 128.975 30.7185Z" fill="black"/>
<path d="M151.507 13.5182C156.589 13.5182 159.131 16.3941 159.131 19.8231C159.131 22.3119 157.719 24.856 154.331 25.7962L159.356 34.1475H154.443L149.813 26.128H147.836V34.1475H143.601V13.5182H151.507ZM151.338 16.9472H147.78V23.0309H151.338C153.709 23.0309 154.726 21.8141 154.726 19.9337C154.726 18.1086 153.709 16.9472 151.338 16.9472Z" fill="black"/>
<path d="M69.3423 42.9412C70.3023 42.9412 70.8105 43.4942 70.8105 44.1579C70.8105 44.6557 70.5282 45.1534 69.907 45.3193L70.867 46.9232H69.907L69.0035 45.3746H68.6082V46.9232H67.8176V42.9412H69.3423ZM69.2858 43.6048H68.6082V44.7663H69.2858C69.7376 44.7663 69.9635 44.545 69.9635 44.1579C69.9635 43.8261 69.7376 43.6048 69.2858 43.6048Z" fill="black"/>
<path d="M74.8764 43.6048H73.3517V44.6004H74.707V45.2087H73.3517V46.2595H74.8764V46.9232H72.5046V42.9412H74.8764V43.6048Z" fill="black"/>
<path d="M80.1282 42.9412V46.9232H79.3376L77.474 44.2132V46.9232H76.6835V42.9412H77.474L79.3376 45.7065V42.9412H80.1282Z" fill="black"/>
<path d="M83.7988 46.9785C82.6693 46.9785 81.7093 46.1489 81.7093 44.9322C81.7093 43.7155 82.6693 42.8859 83.7988 42.8859C84.9846 42.8859 85.8882 43.7155 85.8882 44.9322C85.8317 46.1489 84.9282 46.9785 83.7988 46.9785ZM83.7988 46.2596C84.5329 46.2596 85.0411 45.7618 85.0411 44.9322C85.0411 44.1026 84.5329 43.6048 83.7988 43.6048C83.0646 43.6048 82.5564 44.1026 82.5564 44.9322C82.5564 45.7618 83.0646 46.2596 83.7988 46.2596Z" fill="black"/>
<path d="M90.2364 42.9412H91.0835L89.6152 46.9232H88.5988L87.1305 42.9412H87.9776L89.107 46.0936L90.2364 42.9412Z" fill="black"/>
<path d="M95.0929 46.1489H93.4552L93.1729 46.9232H92.3258L93.794 42.9412H94.754L96.2223 46.9232H95.3752L95.0929 46.1489ZM94.2458 43.8814L93.6811 45.5406H94.867L94.2458 43.8814Z" fill="black"/>
<path d="M97.5211 42.9412H100.514V43.6048H99.4411V46.9232H98.6505V43.6048H97.5776V42.9412H97.5211Z" fill="black"/>
<path d="M102.095 42.9412H102.886V46.9232H102.095V42.9412Z" fill="black"/>
<path d="M108.194 42.9412V46.9232H107.403L105.54 44.2132V46.9232H104.749V42.9412H105.54L107.403 45.7065V42.9412H108.194Z" fill="black"/>
<path d="M113.728 44.1579H112.768C112.599 43.8261 112.26 43.6602 111.808 43.6602C111.074 43.6602 110.566 44.1579 110.566 44.9875C110.566 45.8171 111.074 46.3149 111.808 46.3149C112.429 46.3149 112.825 45.983 112.938 45.3747H111.526V44.7663H113.728V45.4853C113.559 46.3149 112.825 47.0339 111.752 47.0339C110.566 47.0339 109.662 46.2043 109.662 44.9875C109.662 43.7708 110.566 42.9412 111.752 42.9412C112.768 42.8859 113.446 43.3283 113.728 44.1579Z" fill="black"/>
<path d="M117.568 42.9412H120.561V43.6048H119.488V46.9232H118.698V43.6048H117.625V42.9412H117.568Z" fill="black"/>
<path d="M124.683 45.2087H122.933V46.9232H122.142V42.9412H122.933V44.6004H124.683V42.9412H125.474V46.9232H124.683V45.2087Z" fill="black"/>
<path d="M129.653 43.6048H128.128V44.6004H129.483V45.2087H128.128V46.2595H129.653V46.9232H127.281V42.9412H129.653V43.6048Z" fill="black"/>
<path d="M133.775 42.9412H136.26V43.6048H134.566V44.6004H135.865V45.2087H134.566V46.8679H133.775V42.9412Z" fill="black"/>
<path d="M137.841 42.9412H138.632V45.43C138.632 45.983 138.914 46.2595 139.479 46.2595C139.987 46.2595 140.326 45.983 140.326 45.43V42.9412H141.173V45.3746C141.173 46.4255 140.382 46.9232 139.535 46.9232C138.688 46.9232 137.898 46.4255 137.898 45.3746V42.9412H137.841Z" fill="black"/>
<path d="M142.698 42.9412H145.691V43.6048H144.618V46.9232H143.827V43.6048H142.754V42.9412H142.698Z" fill="black"/>
<path d="M147.215 42.9412H148.006V45.43C148.006 45.983 148.288 46.2595 148.853 46.2595C149.361 46.2595 149.7 45.983 149.7 45.43V42.9412H150.547V45.3746C150.547 46.4255 149.756 46.9232 148.909 46.9232C148.062 46.9232 147.272 46.4255 147.272 45.3746V42.9412H147.215Z" fill="black"/>
<path d="M153.822 42.9412C154.782 42.9412 155.291 43.4942 155.291 44.1579C155.291 44.6557 155.008 45.1534 154.387 45.3193L155.347 46.9232H154.387L153.483 45.3746H153.088V46.9232H152.298V42.9412H153.822ZM153.766 43.6048H153.088V44.7663H153.766C154.218 44.7663 154.443 44.545 154.443 44.1579C154.443 43.8261 154.218 43.6048 153.766 43.6048Z" fill="black"/>
<path d="M159.356 43.6048H157.832V44.6004H159.187V45.2087H157.832V46.2595H159.356V46.9232H156.985V42.9412H159.356V43.6048Z" fill="black"/>
</svg>
