<svg width="54" style="color: white" height="54" viewBox="0 0 54 54" fill="none" xmlns="http://www.w3.org/2000/svg">
<path d="M42.5242 15.2756C42.0597 14.8778 41.3845 14.5372 40.5174 14.2632C39.0066 13.7862 36.9469 13.5233 34.7174 13.5233C31.4322 13.5233 28.6356 14.0868 27.2366 15.0307L27.182 15.0674L27.1274 15.0307C25.7282 14.0869 22.9317 13.5233 19.6468 13.5233C17.4172 13.5233 15.3573 13.7861 13.8466 14.2632C12.9796 14.5371 12.3043 14.8777 11.8399 15.2756C11.3373 15.7062 11.0825 16.2062 11.0825 16.762V36.4376C11.0827 37.0046 11.5443 37.4659 12.1113 37.4659C12.169 37.4659 12.2282 37.4609 12.2872 37.4509C14.5081 37.0665 17.053 36.8633 19.6465 36.8633C22.2411 36.8633 24.7861 37.0666 27.0063 37.451C27.0201 37.4534 27.0353 37.4544 27.0515 37.4556C27.0647 37.4565 27.0778 37.4575 27.0912 37.4589H27.092C27.1127 37.4606 27.1329 37.4623 27.154 37.4628L27.173 37.4649C27.1761 37.4654 27.1793 37.4658 27.1823 37.4659C27.2366 37.466 27.2908 37.4612 27.3442 37.4516C27.351 37.4506 27.3573 37.45 27.3639 37.4498C29.5838 37.0662 32.1261 36.8633 34.7172 36.8633C37.3126 36.8633 39.8575 37.0666 42.0767 37.451C42.2245 37.4766 42.376 37.4697 42.5208 37.4305C42.6656 37.3914 42.8 37.321 42.9147 37.2244C43.0298 37.1282 43.1223 37.0078 43.1857 36.8718C43.2491 36.7359 43.2818 36.5876 43.2816 36.4376V16.7619C43.2815 16.2062 43.0267 15.7062 42.5242 15.2756ZM26.3817 35.462L26.2724 35.4486C23.9589 35.1649 21.7914 35.0269 19.6465 35.0269C17.391 35.0269 14.9743 35.1804 13.0162 35.448L12.9055 35.4632V16.6375L12.9347 16.6088C13.387 16.1657 15.82 15.338 19.6465 15.338C23.4119 15.338 25.6697 16.1614 26.3375 16.5968L26.3817 16.6257L26.3817 35.462ZM41.4514 35.4639L41.3409 35.4486C39.3799 35.1811 37.0885 35.0396 34.7146 35.0396C32.3409 35.0396 30.05 35.1811 28.0894 35.4486L27.9788 35.4639V16.6375L28.008 16.6088C28.4603 16.1657 30.8926 15.338 34.7173 15.338C38.4834 15.338 40.7403 16.1615 41.4073 16.5968L41.4516 16.6257L41.4514 35.4639Z" fill="white"/>
<path  d="M15.7362 22.2455L15.754 22.2459L15.7705 22.2456L23.375 22.2455L23.3826 22.2454C23.5793 22.2402 23.7627 22.158 23.8992 22.014C23.9666 21.9433 24.0193 21.86 24.0542 21.7688C24.0892 21.6776 24.1057 21.5803 24.1028 21.4827C24.092 21.0882 23.7745 20.7708 23.3778 20.7601L23.3749 20.7601L15.7714 20.7601L15.7537 20.7599C15.3549 20.7599 15.022 21.0843 15.0116 21.4829C15.0087 21.5805 15.0252 21.6777 15.0601 21.7689C15.0951 21.8601 15.1478 21.9434 15.2151 22.0141C15.3516 22.1579 15.5363 22.2402 15.7362 22.2455ZM38.5733 28.1754H30.9666C30.5576 28.1763 30.2251 28.5099 30.2252 28.9187C30.2251 29.328 30.558 29.6615 30.9676 29.6618H38.5734C38.983 29.6618 39.3165 29.3284 39.3165 28.9186C39.3165 28.5089 38.983 28.1754 38.5733 28.1754ZM30.9669 25.9535H38.5736C38.9825 25.9535 39.3155 25.6207 39.316 25.2113C39.316 24.8014 38.9829 24.4675 38.5731 24.4669H30.9667C30.5577 24.4677 30.2251 24.8012 30.2252 25.21C30.2249 25.6191 30.5574 25.9526 30.9669 25.9535ZM30.9675 22.2456H38.573C38.9825 22.2456 39.3157 21.9123 39.3157 21.5027C39.3157 21.0931 38.9826 20.7599 38.573 20.7599H30.9672C30.8696 20.7598 30.773 20.7789 30.6829 20.8164C30.5928 20.8538 30.511 20.9087 30.4422 20.978C30.3732 21.0468 30.3185 21.1286 30.2812 21.2187C30.244 21.3088 30.2249 21.4054 30.2252 21.5029C30.2252 21.9124 30.5582 22.2456 30.9675 22.2456ZM23.3719 28.1754H15.7663C15.3563 28.1754 15.0228 28.5089 15.0228 28.9189C15.0228 29.3285 15.3562 29.6619 15.7658 29.6619H23.3724C23.7814 29.6614 24.1142 29.3281 24.1142 28.9189C24.1143 28.5098 23.7815 28.1763 23.3719 28.1754ZM23.3718 24.4669H15.7663C15.3563 24.4669 15.0228 24.8005 15.0228 25.2104C15.0228 25.6196 15.3558 25.9529 15.7655 25.9534H23.3726C23.7817 25.9528 24.1145 25.6195 24.1143 25.2105C24.1143 24.8017 23.7815 24.4682 23.3718 24.4669Z" fill="white"/>
</svg>
