<svg width="44" height="44" viewBox="0 0 44 44" fill="none" xmlns="http://www.w3.org/2000/svg">
<path d="M37.4416 13.7523C36.9772 13.3544 36.302 13.0138 35.4348 12.7399C33.924 12.2628 31.8643 12 29.6349 12C26.3496 12 23.5531 12.5635 22.154 13.5074L22.0995 13.5441L22.0449 13.5074C20.6457 12.5636 17.8492 12 14.5643 12C12.3347 12 10.2748 12.2628 8.7641 12.7399C7.89704 13.0138 7.22182 13.3544 6.75733 13.7523C6.2548 14.1829 6 14.6829 6 15.2387V34.9143C6.00018 35.4812 6.46175 35.9426 7.02877 35.9426C7.08651 35.9426 7.14564 35.9375 7.20469 35.9276C9.42555 35.5432 11.9705 35.34 14.564 35.34C17.1586 35.34 19.7036 35.5432 21.9237 35.9276C21.9376 35.9301 21.9528 35.9311 21.9689 35.9323C21.9822 35.9332 21.9953 35.9342 22.0087 35.9356H22.0095C22.0302 35.9373 22.0504 35.939 22.0715 35.9395L22.0905 35.9415C22.0936 35.942 22.0968 35.9425 22.0998 35.9426C22.1541 35.9427 22.2082 35.9379 22.2616 35.9283C22.2685 35.9273 22.2748 35.9267 22.2813 35.9265C24.5013 35.5429 27.0436 35.34 29.6347 35.34C32.2301 35.34 34.775 35.5432 36.9942 35.9276C37.1419 35.9533 37.2935 35.9463 37.4383 35.9072C37.583 35.8681 37.7175 35.7977 37.8322 35.7011C37.9472 35.6048 38.0398 35.4845 38.1032 35.3485C38.1666 35.2126 38.1993 35.0643 38.1991 34.9143V15.2386C38.199 14.6829 37.9442 14.1829 37.4416 13.7523ZM21.2992 33.9386L21.1899 33.9253C18.8763 33.6415 16.7089 33.5036 14.564 33.5036C12.3085 33.5036 9.8918 33.6571 7.93364 33.9247L7.82297 33.9399V15.1142L7.8522 15.0855C8.30446 14.6424 10.7374 13.8147 14.564 13.8147C18.3294 13.8147 20.5872 14.6381 21.255 15.0735L21.2992 15.1024L21.2992 33.9386ZM36.3689 33.9405L36.2584 33.9253C34.2973 33.6578 32.006 33.5163 29.6321 33.5163C27.2583 33.5163 24.9675 33.6578 23.0069 33.9253L22.8963 33.9405V15.1142L22.9255 15.0855C23.3777 14.6424 25.8101 13.8147 29.6348 13.8147C33.4009 13.8147 35.6578 14.6381 36.3248 15.0735L36.369 15.1024L36.3689 33.9405Z" fill="black"/>
<rect width="44" height="44" rx="22" fill="#FE8900"/>
<path d="M34.5444 13.0306C34.1625 12.7034 33.6073 12.4234 32.8944 12.1981C31.6522 11.8059 29.9586 11.5898 28.1255 11.5898C25.4243 11.5898 23.1249 12.0531 21.9746 12.8292L21.9297 12.8593L21.8849 12.8292C20.7344 12.0531 18.435 11.5898 15.7341 11.5898C13.9009 11.5898 12.2072 11.8058 10.9651 12.1981C10.2522 12.4233 9.69699 12.7034 9.31508 13.0306C8.90188 13.3846 8.69238 13.7957 8.69238 14.2527V30.4304C8.69253 30.8965 9.07204 31.2759 9.53826 31.2759C9.58573 31.2759 9.63436 31.2717 9.6829 31.2635C11.5089 30.9475 13.6015 30.7804 15.7339 30.7804C17.8672 30.7804 19.9598 30.9475 21.7852 31.2636C21.7966 31.2656 21.8091 31.2664 21.8224 31.2674C21.8333 31.2682 21.8441 31.269 21.8551 31.2701H21.8558C21.8728 31.2715 21.8894 31.2729 21.9067 31.2734L21.9223 31.275C21.9249 31.2754 21.9275 31.2758 21.93 31.2759C21.9746 31.276 22.0192 31.272 22.0631 31.2642C22.0687 31.2633 22.0739 31.2628 22.0793 31.2626C23.9045 30.9472 25.9949 30.7804 28.1253 30.7804C30.2593 30.7804 32.3518 30.9475 34.1765 31.2636C34.298 31.2847 34.4226 31.279 34.5416 31.2468C34.6607 31.2146 34.7712 31.1568 34.8655 31.0773C34.9601 30.9982 35.0362 30.8992 35.0883 30.7874C35.1404 30.6756 35.1674 30.5538 35.1672 30.4304V14.2526C35.1671 13.7957 34.9576 13.3846 34.5444 13.0306ZM21.2717 29.6282L21.1818 29.6172C19.2796 29.3839 17.4975 29.2705 15.7339 29.2705C13.8794 29.2705 11.8923 29.3967 10.2823 29.6167L10.1913 29.6292V14.1503L10.2153 14.1267C10.5872 13.7624 12.5876 13.0818 15.7339 13.0818C18.8299 13.0818 20.6863 13.7589 21.2354 14.1168L21.2717 14.1406L21.2717 29.6282ZM33.6624 29.6297L33.5715 29.6172C31.9591 29.3973 30.0751 29.2809 28.1232 29.2809C26.1715 29.2809 24.2879 29.3973 22.6758 29.6172L22.5849 29.6297V14.1503L22.6089 14.1267C22.9808 13.7624 24.9807 13.0818 28.1254 13.0818C31.222 13.0818 33.0776 13.7589 33.6261 14.1169L33.6625 14.1406L33.6624 29.6297Z" fill="white"/>
<path d="M12.6498 19.0019L12.6644 19.0022L12.678 19.0019L18.9306 19.0019L18.9369 19.0018C19.0986 18.9975 19.2494 18.9299 19.3616 18.8115C19.417 18.7534 19.4603 18.6849 19.4891 18.6099C19.5178 18.5349 19.5314 18.4549 19.529 18.3747C19.5201 18.0503 19.2591 17.7893 18.9329 17.7806L18.9305 17.7805L12.6787 17.7805L12.6642 17.7804C12.3363 17.7804 12.0626 18.0471 12.054 18.3748C12.0516 18.4551 12.0652 18.535 12.0939 18.61C12.1226 18.6849 12.166 18.7535 12.2214 18.8116C12.3336 18.9298 12.4855 18.9975 12.6498 19.0019ZM31.427 23.8775H25.1725C24.8363 23.8783 24.5629 24.1526 24.563 24.4887C24.5629 24.8253 24.8366 25.0994 25.1734 25.0997H31.427C31.7639 25.0997 32.038 24.8255 32.038 24.4887C32.038 24.1517 31.7639 23.8775 31.427 23.8775ZM25.1728 22.0506H31.4272C31.7634 22.0506 32.0372 21.777 32.0377 21.4404C32.0377 21.1034 31.7637 20.8288 31.4268 20.8284H25.1727C24.8364 20.829 24.5629 21.1032 24.563 21.4393C24.5627 21.7757 24.8361 22.0499 25.1728 22.0506ZM25.1733 19.0019H31.4267C31.7634 19.0019 32.0374 18.7279 32.0374 18.3911C32.0374 18.0544 31.7635 17.7804 31.4267 17.7804H25.1731C25.0928 17.7802 25.0134 17.796 24.9393 17.8268C24.8652 17.8576 24.7979 17.9027 24.7414 17.9597C24.6846 18.0163 24.6396 18.0835 24.609 18.1576C24.5784 18.2317 24.5628 18.3111 24.563 18.3913C24.563 18.728 24.8368 19.0019 25.1733 19.0019ZM18.928 23.8775H12.6745C12.3375 23.8775 12.0632 24.1518 12.0632 24.4889C12.0632 24.8257 12.3373 25.0997 12.6741 25.0997H18.9284C19.2648 25.0994 19.5384 24.8253 19.5384 24.4889C19.5385 24.1525 19.2648 23.8783 18.928 23.8775ZM18.928 20.8284H12.6745C12.3375 20.8284 12.0632 21.1026 12.0632 21.4397C12.0632 21.7761 12.337 22.0501 12.6739 22.0506H18.9286C19.265 22.0501 19.5386 21.776 19.5385 21.4397C19.5385 21.1036 19.2648 20.8294 18.928 20.8284Z" fill="white"/>
</svg>
