<svg width="42" height="42" viewBox="0 0 42 42" fill="none" xmlns="http://www.w3.org/2000/svg">
<g clip-path="url(#clip0_103_13)">
<path d="M42 21C42 9.40202 32.598 0 21 0C9.40202 0 0 9.40202 0 21C0 32.598 9.40202 42 21 42C32.598 42 42 32.598 42 21Z" fill="url(#paint0_linear_103_13)"/>
<path opacity="0.1" d="M36.8053 7.18421C33.7437 12.8045 29.4138 18.6016 24.0036 24.0118C18.5933 29.4221 12.7962 33.7437 7.18421 36.8053C6.83237 36.4995 6.49066 36.1808 6.15908 35.8492C4.15484 33.9119 2.55636 31.5949 1.45684 29.0334C0.357318 26.4719 -0.221236 23.7172 -0.245088 20.9298C-0.26894 18.1423 0.262387 15.3781 1.31791 12.7981C2.37344 10.2182 3.93204 7.87423 5.90283 5.90289C7.87362 3.93155 10.2172 2.3723 12.7968 1.31605C15.3764 0.259806 18.1406 -0.272293 20.928 -0.249219C23.7154 -0.226146 26.4703 0.35164 29.0321 1.45045C31.5939 2.54925 33.9113 4.14709 35.8492 6.15078C36.1808 6.48236 36.4995 6.82684 36.8053 7.18421Z" fill="white"/>
<path d="M25.9737 9.94739H16.0263C14.4141 9.94739 12.8679 10.5878 11.7279 11.7279C10.5878 12.8679 9.94737 14.4141 9.94737 16.0263V25.9737C9.94737 27.5859 10.5878 29.1321 11.7279 30.2722C12.8679 31.4122 14.4141 32.0527 16.0263 32.0527H25.9737C27.5859 32.0527 29.1321 31.4122 30.2722 30.2722C31.4122 29.1321 32.0526 27.5859 32.0526 25.9737V16.0263C32.0526 14.4141 31.4122 12.8679 30.2722 11.7279C29.1321 10.5878 27.5859 9.94739 25.9737 9.94739ZM30.1184 25.1005C30.1184 26.4314 29.5898 27.7077 28.6487 28.6487C27.7077 29.5898 26.4314 30.1184 25.1005 30.1184H16.8995C15.5686 30.1184 14.2923 29.5898 13.3513 28.6487C12.4103 27.7077 11.8816 26.4314 11.8816 25.1005V16.8995C11.8816 15.5687 12.4103 14.2923 13.3513 13.3513C14.2923 12.4103 15.5686 11.8816 16.8995 11.8816H25.1005C26.4314 11.8816 27.7077 12.4103 28.6487 13.3513C29.5898 14.2923 30.1184 15.5687 30.1184 16.8995V25.1005Z" fill="white"/>
<path d="M25.0315 17.01L24.979 16.9575L24.9347 16.9133C23.89 15.8722 22.475 15.2879 21 15.2886C20.2552 15.2936 19.5186 15.4454 18.8325 15.7352C18.1463 16.025 17.524 16.4472 17.001 16.9776C16.4781 17.508 16.0647 18.1362 15.7847 18.8264C15.5046 19.5166 15.3632 20.2552 15.3687 21C15.3676 22.5116 15.9634 23.9625 17.0266 25.037C17.5474 25.5641 18.1679 25.9822 18.852 26.2668C19.5361 26.5515 20.2701 26.697 21.0111 26.6949C22.1225 26.6716 23.2032 26.3254 24.1212 25.6984C25.0393 25.0715 25.755 24.191 26.1813 23.1642C26.6075 22.1375 26.7257 21.0089 26.5216 19.9161C26.3174 18.8234 25.7996 17.8136 25.0315 17.01ZM21 24.7469C20.2568 24.7573 19.5273 24.5464 18.9043 24.1411C18.2812 23.7358 17.7928 23.1543 17.5012 22.4706C17.2095 21.787 17.1278 21.032 17.2664 20.3018C17.405 19.5715 17.7576 18.899 18.2795 18.3697C18.8013 17.8405 19.4688 17.4784 20.197 17.3295C20.9252 17.1806 21.6813 17.2517 22.369 17.5337C23.0567 17.8156 23.645 18.2958 24.0591 18.913C24.4731 19.5303 24.6943 20.2567 24.6944 21C24.698 21.4887 24.6053 21.9732 24.4216 22.4261C24.2379 22.8789 23.9667 23.291 23.6236 23.639C23.2805 23.987 22.8722 24.2639 22.422 24.454C21.9719 24.6441 21.4887 24.7436 21 24.7469Z" fill="white"/>
<path d="M28.303 15.0261C28.3045 15.2034 28.271 15.3792 28.2044 15.5436C28.1378 15.7079 28.0394 15.8575 27.9149 15.9838C27.7905 16.11 27.6423 16.2105 27.4789 16.2795C27.3156 16.3484 27.1402 16.3845 26.9629 16.3855C26.7871 16.3855 26.613 16.3505 26.4508 16.2827C26.2886 16.2148 26.1415 16.1155 26.0179 15.9904C25.8307 15.8005 25.7034 15.5598 25.6517 15.2982C25.6 15.0366 25.6263 14.7655 25.7272 14.5187C25.8281 14.2718 25.9992 14.06 26.2194 13.9096C26.4395 13.7591 26.699 13.6765 26.9657 13.6721C27.2777 13.6721 27.5799 13.7816 27.8195 13.9816L27.8471 14.0092C27.8917 14.0455 27.9324 14.0862 27.9687 14.1308L27.9991 14.164C28.1969 14.4076 28.3043 14.7122 28.303 15.0261Z" fill="white"/>
</g>
<defs>
<linearGradient id="paint0_linear_103_13" x1="6.15079" y1="6.15079" x2="35.8492" y2="35.8492" gradientUnits="userSpaceOnUse">
<stop stop-color="#FAE100"/>
<stop offset="0.15" stop-color="#FCB720"/>
<stop offset="0.3" stop-color="#FF7950"/>
<stop offset="0.5" stop-color="#FF1C74"/>
<stop offset="1" stop-color="#6C1CD1"/>
</linearGradient>
<clipPath id="clip0_103_13">
<rect width="42" height="42" fill="white"/>
</clipPath>
</defs>
</svg>
