<svg width="16" height="16" viewBox="0 0 16 16" fill="none" xmlns="http://www.w3.org/2000/svg">
<g clip-path="url(#clip0_101_2)">
<path d="M5.70191 4.85875L7.25 3.31065V11.5C7.25 11.6989 7.32902 11.8897 7.46967 12.0303C7.61032 12.171 7.80109 12.25 8 12.25C8.19891 12.25 8.38968 12.171 8.53033 12.0303C8.67098 11.8897 8.75 11.6989 8.75 11.5V3.31065L10.2981 4.85875C10.3677 4.9287 10.4504 4.98424 10.5414 5.02218C10.6325 5.06013 10.7302 5.07973 10.8288 5.07986C10.9275 5.07999 11.0252 5.06066 11.1164 5.02297C11.2076 4.98527 11.2904 4.92996 11.3602 4.86019C11.43 4.79043 11.4853 4.70758 11.523 4.6164C11.5607 4.52522 11.58 4.4275 11.5799 4.32884C11.5797 4.23018 11.5601 4.13251 11.5222 4.04144C11.4842 3.95036 11.4287 3.86767 11.3587 3.79809L8.53034 0.969653C8.4607 0.900005 8.37802 0.844757 8.28702 0.807064C8.19602 0.76937 8.09849 0.749969 8 0.749969C7.9015 0.749969 7.80397 0.76937 7.71298 0.807064C7.62198 0.844757 7.5393 0.900005 7.46966 0.969653L4.64125 3.79809C4.5713 3.86767 4.51576 3.95036 4.47781 4.04144C4.43987 4.13251 4.42027 4.23018 4.42014 4.32884C4.42 4.4275 4.43934 4.52522 4.47703 4.6164C4.51473 4.70758 4.57004 4.79043 4.63981 4.86019C4.70957 4.92996 4.79242 4.98527 4.88359 5.02297C4.97477 5.06066 5.07249 5.07999 5.17116 5.07986C5.26982 5.07973 5.36749 5.06013 5.45856 5.02218C5.54964 4.98424 5.63233 4.9287 5.70191 4.85875Z" fill="white"/>
<path d="M14.5 7.25C14.3011 7.25 14.1103 7.32902 13.9697 7.46967C13.829 7.61032 13.75 7.80109 13.75 8V13.75H2.25V8C2.25 7.80109 2.17098 7.61032 2.03033 7.46967C1.88968 7.32902 1.69891 7.25 1.5 7.25C1.30109 7.25 1.11032 7.32902 0.96967 7.46967C0.829018 7.61032 0.75 7.80109 0.75 8V14C0.75 14.3315 0.881696 14.6495 1.11612 14.8839C1.35054 15.1183 1.66848 15.25 2 15.25H14C14.3315 15.25 14.6495 15.1183 14.8839 14.8839C15.1183 14.6495 15.25 14.3315 15.25 14V8C15.25 7.80109 15.171 7.61032 15.0303 7.46967C14.8897 7.32902 14.6989 7.25 14.5 7.25Z" fill="white"/>
</g>
<defs>
<clipPath id="clip0_101_2">
<rect width="16" height="16" fill="white"/>
</clipPath>
</defs>
</svg>
