<svg width="24" height="24" viewBox="0 0 24 24" fill="none" xmlns="http://www.w3.org/2000/svg">
<path fill-rule="evenodd" clip-rule="evenodd" d="M14.2762 19.6441C18.9911 18.6623 19.6114 14.3626 17.7811 12.3738C16.9043 11.4039 15.5908 10.8661 12.469 10.1127C11.0449 9.78139 8.3487 9.16077 9.34715 7.68981C9.67551 7.15046 10.4976 6.82721 11.5922 6.7734C15.3646 6.51868 14.5753 10.6173 17.1791 9.41188C18.3831 8.8199 18.2736 6.88109 16.959 5.74977C14.0792 3.4106 5.84224 3.43808 5.84224 8.55055C5.84224 13.5255 12.9956 12.4209 14.8234 14.4205C15.7696 15.5817 14.7578 17.4552 11.7563 17.3285C8.34626 17.0797 9.25108 13.882 7.15688 13.882C5.5686 13.882 5.02134 15.175 5.84224 16.8445C7.26269 19.7445 11.2577 20.2815 14.3309 19.6441H14.2762ZM15.755 23.7902C14.1339 23.2604 14.2142 23.2938 12.7426 23.3595C6.94527 23.6298 2.465 19.998 1.02388 15.0673C0.424319 12.8573 1.1017 10.908 0.421881 8.76617C-1.6711 3.161 4.44975 -1.79731 9.40188 0.633951C9.84091 0.850407 10.1145 0.902896 11.8123 0.902896C13.3458 0.902896 13.9478 0.956557 14.714 1.17301C18.1642 2.03406 20.9577 4.242 22.4353 7.31188C23.3668 9.19661 23.6952 11.1365 23.4763 13.3429C23.3668 14.5293 23.3668 14.6367 23.6405 15.3363C25.3491 20.273 20.6743 25.0674 15.8085 23.7914L15.755 23.7902Z" fill="black"/>
</svg>
