<svg width="44" height="44" viewBox="0 0 44 44" fill="none" xmlns="http://www.w3.org/2000/svg">
<g clip-path="url(#clip0_206_5)">
<path d="M22 44.0001C34.1503 44.0001 44.0001 34.1503 44.0001 22C44.0001 9.84976 34.1503 0 22 0C9.84976 0 0 9.84976 0 22C0 34.1503 9.84976 44.0001 22 44.0001Z" fill="#1B92D0"/>
<path d="M37.556 6.35333C46.1476 14.9449 46.148 28.8751 37.5557 37.4673C28.9637 46.0593 15.0332 46.0593 6.44165 37.4677L37.556 6.35333Z" fill="#1A8ABA"/>
<path d="M43.3917 27.1306L30.2033 13.9424L27.5889 16.5568L21.1302 11.4887L11.0126 21.6064L15.4876 28.658L13.7412 30.4043L26.8044 43.4674C34.9864 41.6437 41.4467 35.2664 43.3917 27.1306Z" fill="#1B88AD"/>
<path d="M41.8296 31.5386L23.0762 12.7849L20.03 13.5735L16.0931 15.4261L14.4427 20.7818L14.335 25.3475L31.0421 42.0546C35.7562 39.9252 39.5882 36.1894 41.8296 31.5386Z" fill="#1D839F"/>
<path d="M33.608 24.1768C33.7015 23.5866 33.7504 22.9825 33.7504 22.3658C33.7504 15.9569 28.5549 10.7614 22.1456 10.7614C21.5304 10.7614 20.9249 10.8121 20.3351 10.9038C19.2662 10.2435 18.0048 9.8606 16.6527 9.8606C12.7801 9.8606 9.64001 12.9993 9.64001 16.8726C9.64001 18.2242 10.0232 19.4845 10.6839 20.5559C10.5926 21.1471 10.5421 21.7492 10.5421 22.3661C10.5421 28.7751 15.7377 33.9689 22.1453 33.9689C22.7608 33.9689 23.3667 33.9216 23.9566 33.8285C25.0266 34.4885 26.2872 34.8728 27.6392 34.8728C31.5126 34.8728 34.6523 31.7323 34.6523 27.8594C34.6522 26.5074 34.2694 25.2467 33.608 24.1768ZM27.6552 27.643C27.1643 28.35 26.4435 28.9023 25.5007 29.2994C24.5565 29.6971 23.4407 29.8951 22.1522 29.8951C20.6074 29.8951 19.3283 29.6252 18.3191 29.0794C17.6035 28.6887 17.0219 28.164 16.5742 27.5102C16.126 26.8558 15.8989 26.2152 15.8989 25.5906C15.8989 25.222 16.0392 24.9013 16.3129 24.6404C16.5894 24.3774 16.9455 24.2451 17.3656 24.2451C17.7098 24.2451 18.0054 24.349 18.2461 24.5547C18.4851 24.7603 18.6856 25.0584 18.8495 25.4523C19.0458 25.9088 19.2594 26.291 19.4866 26.5949C19.712 26.8957 20.0295 27.1469 20.4412 27.3435C20.8483 27.5405 21.3892 27.6391 22.0669 27.6391C22.9941 27.6391 23.7434 27.439 24.3169 27.0426C24.8932 26.6437 25.1704 26.1578 25.1704 25.5711C25.1704 25.1028 25.021 24.7304 24.715 24.4406C24.4062 24.1475 24.0074 23.9234 23.512 23.7674C23.0152 23.61 22.3478 23.4425 21.5117 23.2668C20.3893 23.0219 19.4496 22.7363 18.6896 22.4087C17.9281 22.0801 17.3215 21.6305 16.8724 21.0629C16.4222 20.4897 16.1974 19.7773 16.1974 18.9328C16.1974 18.1279 16.4344 17.4078 16.9092 16.7818C17.3837 16.1541 18.0702 15.6732 18.9651 15.338C19.8568 15.0031 20.907 14.836 22.1096 14.836C23.0715 14.836 23.9032 14.9471 24.6077 15.1691C25.3101 15.3918 25.8955 15.6861 26.3637 16.056C26.8293 16.4242 27.1711 16.8133 27.3879 17.2212C27.6043 17.6308 27.7137 18.0299 27.7137 18.4197C27.7137 18.7823 27.5734 19.1109 27.2997 19.3997C27.0259 19.688 26.6758 19.8353 26.2665 19.8339C25.8976 19.8339 25.6082 19.7491 25.4078 19.5685C25.2122 19.3948 25.0073 19.1172 24.7853 18.7306C24.5046 18.1907 24.1686 17.7711 23.7779 17.4703C23.3975 17.1753 22.7701 17.0215 21.8965 17.0235C21.0885 17.0235 20.4416 17.1885 19.9535 17.5112C19.4626 17.8395 19.2275 18.2202 19.2264 18.6666C19.2275 18.9462 19.3074 19.1814 19.4693 19.3832C19.6336 19.5868 19.8618 19.763 20.1558 19.9116C20.4497 20.0624 20.7484 20.1791 21.0489 20.2632C21.3525 20.349 21.8562 20.4734 22.5573 20.6384C23.4358 20.8277 24.2334 21.0392 24.9498 21.27C25.6648 21.502 26.2743 21.7813 26.7787 22.1148C27.287 22.4465 27.684 22.8701 27.9672 23.3813C28.2524 23.8933 28.3945 24.5187 28.3945 25.2551C28.394 26.1408 28.147 26.9374 27.6552 27.643Z" fill="white"/>
</g>
<defs>
<clipPath id="clip0_206_5">
<rect width="44" height="44" fill="white"/>
</clipPath>
</defs>
</svg>
