<svg width="24" height="23" viewBox="0 0 24 23" fill="none" xmlns="http://www.w3.org/2000/svg">
<path fill-rule="evenodd" clip-rule="evenodd" d="M12.1507 22.8C10.6063 22.8 9.93308 22.4525 8.62028 21.5126C7.43227 20.6627 6.67026 20.1955 4.46465 20.6314C3.60425 20.8014 3.62105 20.7235 3.43625 19.8638C3.33785 19.4109 3.26705 19.1352 3.09905 19.1085C1.30744 18.8293 0.247836 18.4164 0.0366352 17.9173C-0.0641651 17.6769 0.0558513 17.4878 0.240652 17.4562C2.57706 17.0676 4.46587 15.1066 5.28548 13.1747C5.28788 13.1699 5.28908 13.1649 5.29148 13.1613C5.49908 12.7363 5.53988 12.3695 5.41508 12.0708C5.13308 11.3981 4.22467 11.2573 3.57307 10.995C3.12427 10.8153 2.38625 10.4367 2.48465 9.91457C2.57465 9.43616 3.34145 9.13259 3.75185 9.32687C4.78266 9.81621 5.60825 9.66655 5.85545 9.43585C5.84345 9.2015 5.99948 8.94786 5.99948 8.70988C5.99948 7.05488 5.58188 4.99577 6.10268 3.81553C8.35028 -1.28424 15.8479 -1.25865 18.0835 3.81318C18.6043 4.99463 18.4759 7.0548 18.3727 8.71222L18.3679 8.79132C18.3535 9.01595 18.3403 9.22827 18.3295 9.43468C18.3775 9.47961 18.5707 9.63511 18.9655 9.65089C19.3003 9.63754 19.6867 9.52843 20.1115 9.32687C20.6119 9.0901 21.5131 9.45321 21.5227 9.99718C21.5275 10.251 21.3415 10.6296 20.4259 10.995C19.7767 11.2549 18.8659 11.3981 18.5851 12.0708C18.4591 12.3695 18.4999 12.7363 18.7075 13.1601C18.7099 13.1649 18.7111 13.1699 18.7135 13.1747C18.7771 13.3265 20.3191 16.8831 23.7583 17.4562C23.9035 17.4805 24.0079 17.6116 23.9995 17.7597C23.9959 17.8131 23.9839 17.8663 23.9611 17.9185C23.7511 18.4151 22.6927 18.8269 20.8999 19.1062C20.7319 19.1329 20.6611 19.4086 20.5639 19.8591C20.4163 20.5439 20.4391 20.7795 19.5343 20.5998C17.3527 20.1699 16.5259 20.6895 15.3799 21.5091C14.5351 22.1138 13.5799 22.8 12.1507 22.8Z" fill="black"/>
</svg>
