<svg width="44" height="44" viewBox="0 0 44 44" fill="none" xmlns="http://www.w3.org/2000/svg">
<path d="M22 44C34.1503 44 44 34.1503 44 22C44 9.84974 34.1503 0 22 0C9.84974 0 0 9.84974 0 22C0 34.1503 9.84974 44 22 44Z" fill="#FFFA37"/>
<path fill-rule="evenodd" clip-rule="evenodd" d="M29.8972 9.72008C28.3802 7.80809 25.8772 6.28571 22.0186 6.28571C18.7143 6.31825 12.1059 8.14698 12.1059 15.2017C12.1059 16.2319 12.1875 17.6118 12.2588 18.6279C12.1748 18.6035 12.0715 18.5578 11.9079 18.4794L11.8852 18.4685C11.5958 18.3296 11.1559 18.1182 10.544 18.1182C9.92586 18.1182 9.32818 18.3604 8.88447 18.7195C8.44344 19.0762 8.06667 19.6248 8.06667 20.2879C8.06667 21.1175 8.53351 21.6681 9.07938 22.0212C9.56423 22.3349 10.1756 22.5352 10.6596 22.6938L10.7074 22.7093C11.2255 22.8794 11.6052 23.0088 11.867 23.172C12.0707 23.2991 12.1016 23.3794 12.1055 23.4558C12.1028 23.4666 12.0966 23.49 12.083 23.528C12.0551 23.6066 12.0086 23.7127 11.9407 23.8453C11.8052 24.1099 11.6076 24.4354 11.3726 24.7824C10.8985 25.4824 10.3198 26.2004 9.88763 26.6162C9.4613 27.0264 8.7617 27.536 8.03026 27.9417C7.66753 28.1429 7.31281 28.3096 6.99549 28.4241C6.66793 28.5423 6.42789 28.5874 6.27956 28.5874C6.16215 28.5874 6.06052 28.6115 6.01618 28.6226C5.95384 28.6382 5.88931 28.6588 5.8255 28.6828C5.6989 28.7303 5.54803 28.8016 5.39859 28.9022C5.11308 29.0944 4.71429 29.4819 4.71429 30.0932C4.71429 30.4122 4.78919 30.6823 4.91866 30.9166C5.03199 31.1217 5.17766 31.2774 5.26151 31.367L5.27396 31.3802L5.29715 31.4051C5.75827 31.9012 6.52156 32.2465 7.26255 32.4833C7.89925 32.6868 8.61112 32.8384 9.30478 32.9294C9.31457 32.9742 9.32482 33.0223 9.33602 33.0751L9.33964 33.0922C9.38331 33.2981 9.44115 33.5709 9.52634 33.8225C9.60672 34.0598 9.75228 34.4107 10.0503 34.6607C10.4298 34.9789 10.9263 35.0111 11.2502 35.0098C11.5979 35.0084 12.0039 34.9594 12.3891 34.913L12.4219 34.9091C12.9638 34.8437 13.531 34.7763 14.1182 34.7763C15.1899 34.7763 15.8769 35.224 16.9548 35.9601L16.962 35.9651C17.3354 36.2202 17.7534 36.5055 18.2286 36.7863C19.8192 37.7262 21.1115 37.7182 21.844 37.7135C21.8924 37.7132 21.9381 37.713 21.9815 37.713C22.0248 37.713 22.071 37.7132 22.1196 37.7135C22.8533 37.7182 24.1801 37.7267 25.7714 36.7863C26.2466 36.5055 26.6646 36.2202 27.0379 35.9651L27.0452 35.9601C28.1231 35.224 28.8101 34.7763 29.8818 34.7763C30.4691 34.7763 31.0362 34.8437 31.5782 34.9091L31.611 34.913C31.9962 34.9594 32.4021 35.0084 32.7498 35.0098C33.0737 35.0111 33.5701 34.9789 33.9498 34.6607C34.2477 34.4107 34.3932 34.0598 34.4737 33.8225C34.5589 33.571 34.6167 33.2982 34.6604 33.0922L34.664 33.0751C34.6752 33.0223 34.6854 32.9742 34.6953 32.9294C35.3889 32.8384 36.1008 32.6868 36.7375 32.4833C37.4784 32.2465 38.2418 31.9011 38.7029 31.405L38.7261 31.3802L38.7384 31.367C38.8223 31.2774 38.968 31.1217 39.0813 30.9166C39.2108 30.6823 39.2857 30.4122 39.2857 30.0932C39.2857 29.4819 38.8869 29.0944 38.6014 28.9022C38.4519 28.8016 38.3011 28.7303 38.1746 28.6828C38.1108 28.6588 38.0462 28.6382 37.9838 28.6226C37.9395 28.6115 37.8378 28.5874 37.7204 28.5874C37.5721 28.5874 37.3321 28.5423 37.0045 28.4241C36.6872 28.3096 36.3325 28.1429 35.9697 27.9417C35.2384 27.536 34.5388 27.0264 34.1124 26.6162C33.6801 26.2004 33.1015 25.4824 32.6274 24.7824C32.3923 24.4354 32.1948 24.1099 32.0594 23.8453C31.9915 23.7127 31.945 23.6066 31.917 23.528C31.9035 23.49 31.8972 23.4666 31.8945 23.4558C31.8984 23.3794 31.9292 23.2991 32.1331 23.172C32.3949 23.0088 32.7745 22.8794 33.2926 22.7093L33.3404 22.6938C33.8244 22.5352 34.4358 22.3349 34.9206 22.0212C35.4665 21.6681 35.9334 21.1175 35.9334 20.2879C35.9334 19.6248 35.5566 19.0762 35.1155 18.7195C34.6719 18.3604 34.0741 18.1182 33.456 18.1182C32.8441 18.1182 32.4043 18.3296 32.1148 18.4685L32.0922 18.4794C31.9285 18.5578 31.8252 18.6035 31.7413 18.6279C31.8125 17.6118 31.894 16.2319 31.894 15.2017C31.894 13.8029 31.3855 11.5956 29.8972 9.72008ZM15.3736 10.6429C14.1149 12.2186 13.6835 14.0897 13.6835 15.2017C13.6835 16.2327 13.7709 17.6649 13.8446 18.692C13.8691 19.033 13.7992 19.4307 13.5013 19.7462C13.1997 20.0657 12.7896 20.1694 12.4231 20.1694C11.894 20.1694 11.4916 19.9758 11.2341 19.852L11.2042 19.8377C10.917 19.6999 10.766 19.6359 10.544 19.6359C10.342 19.6359 10.0954 19.7227 9.89991 19.8809C9.70173 20.0412 9.64426 20.1982 9.64426 20.2879C9.64426 20.4708 9.71172 20.6016 9.95963 20.7619C10.2524 20.9512 10.6696 21.0936 11.2165 21.273L11.2642 21.2886C11.7183 21.4374 12.2809 21.6217 12.7248 21.8985C13.2231 22.209 13.6835 22.7082 13.6835 23.4773C13.6835 23.6789 13.6278 23.873 13.5754 24.0199C13.5187 24.1794 13.442 24.3479 13.3559 24.5158C13.1837 24.8524 12.9506 25.2326 12.6945 25.6108C12.1862 26.3613 11.5401 27.1728 11.0032 27.6893C10.4603 28.2115 9.64391 28.7985 8.81822 29.2565C8.40237 29.4871 7.96822 29.6939 7.54959 29.845C7.17485 29.9802 6.77098 30.0861 6.38353 30.1027C6.37388 30.1068 6.36321 30.1117 6.35204 30.1172C6.33417 30.1263 6.31747 30.1359 6.30288 30.1458L6.29543 30.151C6.2969 30.1614 6.29856 30.1691 6.29996 30.1746C6.30306 30.1867 6.30673 30.1953 6.31168 30.2043C6.32688 30.2318 6.35083 30.2624 6.44774 30.3663L6.47316 30.3935C6.64775 30.5814 7.07797 30.8251 7.75996 31.0431C8.40948 31.2507 9.17751 31.4006 9.90317 31.4694C10.2662 31.5038 10.4755 31.7307 10.564 31.853C10.6552 31.9787 10.7074 32.1117 10.7378 32.1998C10.7968 32.3705 10.8413 32.5807 10.8764 32.7465L10.8817 32.7717C10.9297 32.9976 10.9716 33.1909 11.0263 33.3523C11.0457 33.4095 11.0635 33.4529 11.0788 33.4848C11.1135 33.4889 11.1666 33.4926 11.2435 33.4923C11.5771 33.4909 11.9112 33.4412 12.2418 33.4013C12.7707 33.3375 13.4252 33.2586 14.1182 33.2586C15.7255 33.2586 16.786 33.9834 17.8106 34.6835L17.8681 34.7227C18.2471 34.9816 18.6271 35.2407 19.0544 35.4932C20.2584 36.2048 21.1745 36.1996 21.844 36.1958C21.891 36.1956 21.9368 36.1953 21.9815 36.1953C22.0258 36.1953 22.0714 36.1956 22.1183 36.1958C22.795 36.1994 23.7419 36.2046 24.9457 35.4932C25.3729 35.2407 25.7529 34.9816 26.1319 34.7227L26.1894 34.6835C27.214 33.9834 28.2746 33.2586 29.8818 33.2586C30.5748 33.2586 31.2293 33.3375 31.7583 33.4013L31.7741 33.4032C32.2019 33.4548 32.5149 33.4912 32.7566 33.4923C32.8334 33.4926 32.8866 33.4889 32.9211 33.4848C32.9365 33.4529 32.9543 33.4095 32.9738 33.3523C33.0285 33.1909 33.0703 32.9976 33.1183 32.7717L33.1237 32.7465C33.1587 32.5806 33.2032 32.3705 33.2621 32.1998C33.2926 32.1117 33.3448 31.9787 33.4359 31.853C33.5246 31.7307 33.7339 31.5038 34.0969 31.4694C34.8226 31.4006 35.5905 31.2507 36.24 31.0431C36.922 30.8251 37.3522 30.5814 37.5268 30.3936L37.5523 30.3663C37.6491 30.2624 37.6731 30.2318 37.6884 30.2043C37.6932 30.1953 37.697 30.1867 37.7 30.1746C37.7014 30.1691 37.7031 30.1614 37.7046 30.151L37.6972 30.1458C37.6826 30.1359 37.6659 30.1263 37.648 30.1172C37.6368 30.1115 37.6261 30.1068 37.6166 30.1027C37.229 30.0861 36.8252 29.9802 36.4504 29.845C36.0318 29.6939 35.5976 29.4871 35.1818 29.2565C34.3562 28.7985 33.5398 28.2115 32.9969 27.6893C32.4599 27.1728 31.8139 26.3613 31.3055 25.6108C31.0494 25.2326 30.8164 24.8524 30.6441 24.5158C30.558 24.3479 30.4813 24.1794 30.4246 24.0199C30.3723 23.873 30.3165 23.6789 30.3165 23.4773C30.3165 22.7082 30.7769 22.209 31.2752 21.8985C31.7191 21.6217 32.2817 21.4374 32.7359 21.2886L32.7835 21.273C33.3303 21.0936 33.7475 20.9512 34.0405 20.7619C34.2883 20.6016 34.3557 20.4708 34.3557 20.2879C34.3557 20.1982 34.2983 20.0412 34.1002 19.8809C33.9045 19.7227 33.658 19.6359 33.456 19.6359C33.234 19.6359 33.083 19.6999 32.7957 19.8377L32.7659 19.852C32.5085 19.9758 32.106 20.1694 31.5769 20.1694C31.2105 20.1694 30.8003 20.0657 30.4988 19.7462C30.2008 19.4307 30.1309 19.033 30.1554 18.692C30.2291 17.6649 30.3165 16.2327 30.3165 15.2017C30.3165 14.0867 29.8928 12.2155 28.6432 10.6409C27.4227 9.10271 25.3822 7.80331 22.0186 7.80331C18.6544 7.80331 16.6037 9.10309 15.3736 10.6429Z" fill="black"/>
<path fill-rule="evenodd" clip-rule="evenodd" d="M15.3731 10.643C14.1143 12.2187 13.6831 14.0897 13.6831 15.2017C13.6831 16.2327 13.7704 17.665 13.8441 18.6921C13.8685 19.0331 13.7986 19.4307 13.5008 19.7464C13.1992 20.0659 12.7891 20.1696 12.4226 20.1696C11.8935 20.1696 11.4911 19.976 11.2336 19.8521L11.2037 19.8377C10.9165 19.7 10.7655 19.6359 10.5435 19.6359C10.3415 19.6359 10.0949 19.7228 9.89942 19.8809C9.70121 20.0413 9.64376 20.1983 9.64376 20.2881C9.64376 20.471 9.71122 20.6016 9.95913 20.762C10.2519 20.9514 10.6691 21.0937 11.216 21.273L11.2637 21.2887C11.7178 21.4376 12.2804 21.6217 12.7243 21.8985C13.2226 22.2091 13.6831 22.7084 13.6831 23.4774C13.6831 23.679 13.6273 23.8731 13.5749 24.02C13.5182 24.1795 13.4414 24.348 13.3554 24.516C13.1832 24.8526 12.9501 25.2327 12.6938 25.611C12.1857 26.3613 11.5396 27.1728 11.0026 27.6895C10.4598 28.2117 9.64342 28.7986 8.81771 29.2565C8.40186 29.4872 7.96772 29.694 7.54908 29.845C7.17434 29.9803 6.77047 30.0862 6.38302 30.1027C6.37337 30.1068 6.3627 30.1117 6.35153 30.1173C6.33366 30.1263 6.31695 30.136 6.30239 30.1458L6.29492 30.151C6.29638 30.1615 6.29805 30.1692 6.29945 30.1747C6.30254 30.1868 6.30622 30.1954 6.31119 30.2044C6.32637 30.2319 6.35033 30.2625 6.44724 30.3664L6.47267 30.3936C6.64724 30.5814 7.07748 30.8251 7.75945 31.0432C8.40896 31.2508 9.17702 31.4007 9.90266 31.4696C10.2657 31.504 10.475 31.7309 10.5636 31.853C10.6547 31.9789 10.7068 32.1118 10.7373 32.2C10.7963 32.3706 10.8408 32.5807 10.8759 32.7465L10.8812 32.7718C10.9292 32.9978 10.9711 33.1909 11.0258 33.3524C11.0451 33.4095 11.063 33.453 11.0784 33.4849C11.113 33.4888 11.1661 33.4926 11.243 33.4923C11.5766 33.491 11.9107 33.4412 12.2413 33.4015C12.7702 33.3377 13.4247 33.2588 14.1177 33.2588C15.725 33.2588 16.7855 33.9835 17.8099 34.6834L17.8675 34.7227C18.2466 34.9817 18.6266 35.2408 19.0539 35.4934C20.2579 36.2049 21.1741 36.1997 21.8433 36.1959C21.8905 36.1956 21.9364 36.1955 21.981 36.1955C22.0253 36.1955 22.0709 36.1956 22.1179 36.1959C22.7945 36.1996 23.7413 36.2047 24.9452 35.4934C25.3724 35.2408 25.7524 34.9817 26.1314 34.7227L26.189 34.6834C27.2135 33.9835 28.2741 33.2588 29.8813 33.2588C30.5743 33.2588 31.2288 33.3377 31.7578 33.4015L31.7737 33.4034C32.2014 33.4549 32.5144 33.4914 32.7561 33.4923C32.833 33.4926 32.8861 33.4888 32.9206 33.4849C32.936 33.453 32.9538 33.4095 32.9731 33.3524C33.0278 33.1909 33.0698 32.9978 33.1177 32.7718L33.123 32.7465C33.1582 32.5807 33.2027 32.3706 33.2616 32.2C33.2921 32.1116 33.3443 31.9789 33.4354 31.853C33.5241 31.7307 33.7332 31.504 34.0964 31.4696C34.8221 31.4007 35.59 31.2508 36.2395 31.0432C36.9215 30.8251 37.3518 30.5815 37.5263 30.3936L37.5518 30.3664C37.6486 30.2625 37.6726 30.2319 37.6879 30.2044C37.6928 30.1954 37.6965 30.1868 37.6995 30.1747C37.7009 30.1692 37.7027 30.1615 37.7041 30.151L37.6967 30.1458C37.6821 30.136 37.6654 30.1263 37.6475 30.1173C37.6363 30.1117 37.6257 30.1068 37.6159 30.1027C37.2286 30.0862 36.8247 29.9803 36.4499 29.845C36.0313 29.694 35.5971 29.4872 35.1813 29.2565C34.3555 28.7986 33.5392 28.2117 32.9964 27.6895C32.4594 27.1728 31.8134 26.3613 31.3051 25.611C31.0489 25.2327 30.8159 24.8526 30.6435 24.516C30.5575 24.348 30.4808 24.1795 30.424 24.02C30.3718 23.8731 30.316 23.679 30.316 23.4774C30.316 22.7084 30.7764 22.2091 31.2747 21.8985C31.7187 21.6217 32.2812 21.4376 32.7354 21.2887L32.783 21.273C33.3298 21.0937 33.7471 20.9514 34.0398 20.762C34.2878 20.6016 34.3552 20.471 34.3552 20.2881C34.3552 20.1983 34.2978 20.0413 34.0995 19.8809C33.904 19.7228 33.6575 19.6359 33.4556 19.6359C33.2335 19.6359 33.0825 19.7 32.7952 19.8377L32.7654 19.8521C32.508 19.976 32.1055 20.1696 31.5764 20.1696C31.21 20.1696 30.7998 20.0659 30.4983 19.7464C30.2003 19.4307 30.1304 19.0331 30.1549 18.6921C30.2286 17.665 30.316 16.2327 30.316 15.2017C30.316 14.0869 29.8923 12.2156 28.6427 10.641C27.4222 9.1028 25.3817 7.80341 22.0179 7.80341C18.6538 7.80341 16.6032 9.1032 15.3731 10.643Z" fill="white"/>
</svg>
