<svg width="26" height="22" viewBox="0 0 26 22" fill="none" xmlns="http://www.w3.org/2000/svg">
<path d="M0.0413451 16.7712C0.0283069 16.6479 0.0152684 16.5247 0 16.4019C0.0291525 14.7836 0.660617 13.4513 1.79809 12.3277C2.62103 11.5147 3.4396 10.6972 4.25814 9.87969C5.13278 9.00618 6.00739 8.1327 6.88728 7.26478C7.48282 6.67747 8.20695 6.29843 9.00864 6.04696C10.0128 5.73196 11.0228 5.70592 12.0254 5.97354C13.4612 6.35675 14.5997 7.18408 15.3342 8.48573C15.6176 8.98724 15.8006 9.55172 15.9798 10.1046L15.9953 10.1524C16.1546 10.6454 15.7595 11.2374 15.2447 11.3613C14.7178 11.4884 14.1639 11.1755 14.0359 10.6512C13.7865 9.62858 13.2613 8.81062 12.3305 8.28528C10.9754 7.51991 9.26841 7.75264 8.16374 8.85488C7.34994 9.66677 6.53738 10.48 5.7248 11.2933C4.87348 12.1454 4.02214 12.9974 3.16929 13.848C2.28483 14.7305 1.88919 15.788 2.11564 17.0204C2.35042 18.2976 3.08756 19.2061 4.32863 19.6404C5.8154 20.1605 7.07989 19.7601 8.15593 18.6475C8.59308 18.1957 9.03897 17.7524 9.48489 17.3091C9.61461 17.1801 9.74434 17.0512 9.87385 16.922C10.535 16.2618 11.3034 16.5435 11.5912 17.0907C11.7823 17.4531 11.7563 17.8998 11.4528 18.2174C11.1122 18.574 10.7632 18.9226 10.4142 19.2714C10.1343 19.5511 9.85439 19.8308 9.57868 20.1147C8.96544 20.7457 8.26577 21.2362 7.43597 21.5444C6.4807 21.8995 5.50982 21.9755 4.50875 21.798C3.40876 21.6027 2.46599 21.1164 1.66742 20.3381C0.881863 19.5722 0.362845 18.6589 0.151489 17.5817C0.0988412 17.3148 0.0700938 17.043 0.0413451 16.7712Z" fill="white"/>
<path d="M19.8328 0.0282961C19.9188 0.0186868 19.998 0.00984276 20.0673 0.00104141L20.0678 0C22.2506 0.061438 23.8535 0.948125 24.9217 2.70588C25.6792 3.95182 25.8421 5.3248 25.5339 6.75349C25.2752 7.95049 24.6078 8.89393 23.752 9.73584C23.1029 10.3742 22.4589 11.0177 21.8148 11.6612C21.1547 12.3208 20.4945 12.9804 19.8289 13.6345C19.3161 14.1385 18.7935 14.6379 18.2312 15.0841C17.7383 15.4756 17.1474 15.6948 16.5315 15.8572C15.7106 16.0744 14.887 16.0889 14.0661 15.9348C13.1941 15.7713 12.4059 15.3975 11.7094 14.8388C10.7974 14.1073 10.1924 13.167 9.85615 12.058C9.72913 11.6378 9.64948 11.1911 9.9967 10.8105C10.2377 10.5465 10.5371 10.3908 10.8937 10.4538C11.2773 10.5215 11.5741 10.7298 11.7177 11.1177C11.7599 11.2314 11.799 11.3472 11.8381 11.463C11.9394 11.7633 12.0409 12.0641 12.1972 12.3324C12.66 13.1269 13.3539 13.6502 14.2608 13.8735C15.6185 14.2073 16.7611 13.8371 17.7372 12.8546C18.5331 12.0534 19.3331 11.2562 20.1331 10.459C20.9459 9.64905 21.7586 8.83911 22.5672 8.02495C23.4298 7.15648 23.8041 6.10943 23.5917 4.88848C23.3459 3.47489 22.1866 2.29768 20.7004 2.09097C19.4432 1.91603 18.4275 2.34506 17.5623 3.23643C16.9553 3.86174 16.3363 4.47664 15.6997 5.07176C15.3686 5.38155 14.8719 5.41435 14.558 5.21338C14.1041 4.92285 13.9057 4.5386 14.0661 4.05022C14.1515 3.78989 14.3665 3.55664 14.5658 3.35202C15.2103 2.69026 15.8595 2.03162 16.5352 1.40266C17.2614 0.726844 18.1261 0.296776 19.1084 0.125479C19.3621 0.0809005 19.6187 0.0522256 19.8328 0.0282961Z" fill="white"/>
</svg>
