<svg width="14" height="14" viewBox="0 0 14 14" fill="none" xmlns="http://www.w3.org/2000/svg">
<path d="M12.3935 6.03713H7.62621V1.2698C7.62621 0.830987 7.27047 0.47525 6.83166 0.47525C6.39284 0.47525 6.0371 0.830987 6.0371 1.2698V6.03713H1.26977C0.830957 6.03713 0.47522 6.39287 0.47522 6.83169C0.47522 7.2705 0.830957 7.62624 1.26977 7.62624H6.0371V12.3936C6.0371 12.8324 6.39284 13.1881 6.83166 13.1881C7.27047 13.1881 7.62621 12.8324 7.62621 12.3936V7.62624H12.3935C12.8324 7.62624 13.1881 7.2705 13.1881 6.83169C13.1881 6.39287 12.8324 6.03713 12.3935 6.03713Z" fill="white"/>
</svg>
