<svg width="42" height="42" viewBox="0 0 42 42" fill="none" xmlns="http://www.w3.org/2000/svg">
<g clip-path="url(#clip0_103_43)">
<path d="M21 0C9.42055 0 0 9.42055 0 21C0 32.5794 9.42055 42 21 42C32.5794 42 41.9999 32.5794 41.9999 21C41.9999 9.42055 32.5794 0 21 0ZM19.6391 28.0001L17.7307 29.9084C16.6953 30.9437 15.3364 31.4619 13.9801 31.4619C12.6334 31.462 11.2893 30.9512 10.2668 29.9288C9.27511 28.9371 8.73157 27.612 8.73633 26.1977C8.74109 24.7859 9.29176 23.4602 10.2871 22.4649L15.1314 17.6206C16.1267 16.6253 17.4524 16.0745 18.8642 16.0698C18.8702 16.0698 18.8765 16.0698 18.8825 16.0698C20.29 16.0698 21.6079 16.6129 22.5953 17.6003C23.3198 18.3249 23.8118 19.2402 24.0179 20.2474C24.127 20.7799 23.7836 21.3001 23.2509 21.4091C22.7182 21.5187 22.1982 21.1748 22.0891 20.6421C21.9606 20.014 21.6542 19.4435 21.2031 18.9924C20.5878 18.3771 19.764 18.0386 18.8823 18.0386C18.8784 18.0386 18.8747 18.0386 18.8708 18.0386C17.9823 18.0415 17.1487 18.3875 16.5235 19.0127L11.6792 23.8571C11.054 24.4823 10.708 25.3159 10.7051 26.2043C10.7021 27.0903 11.0408 27.9186 11.6589 28.5367C12.2743 29.1521 13.0981 29.4906 13.9798 29.4906H13.9913C14.8798 29.4876 15.7134 29.1417 16.3386 28.5164L18.247 26.6081C18.6313 26.2237 19.2547 26.2236 19.6391 26.6081C20.0235 26.9924 20.0235 27.6156 19.6391 28.0001ZM31.7272 19.5209L26.9152 24.3329C25.8891 25.359 24.5413 25.8721 23.1934 25.8721C21.8455 25.8721 20.4977 25.3591 19.4716 24.3329C18.7478 23.6091 18.2548 22.6959 18.0462 21.6922C17.9356 21.16 18.2774 20.6387 18.8097 20.5281C19.3417 20.4173 19.8631 20.7592 19.9738 21.2915C20.1041 21.9187 20.4119 22.4891 20.8637 22.9409C22.1483 24.2255 24.2385 24.2252 25.523 22.9409L30.3351 18.1288C31.6197 16.8442 31.6197 14.7541 30.3351 13.4694C29.7162 12.8505 28.8888 12.5097 28.0054 12.5097C27.122 12.5097 26.2947 12.8505 25.6758 13.4694L23.7801 15.3651C23.3956 15.7495 22.7725 15.7495 22.388 15.3651C22.0036 14.9806 22.0035 14.3574 22.388 13.973L24.2836 12.0773C25.2744 11.0865 26.5962 10.5409 28.0054 10.5409C29.4147 10.5409 30.7364 11.0865 31.7272 12.0773C33.7794 14.1295 33.7794 17.4686 31.7272 19.5209Z" fill="black"/>
</g>
<defs>
<clipPath id="clip0_103_43">
<rect width="42" height="42" fill="white"/>
</clipPath>
</defs>
</svg>
