<svg width="22" height="20" viewBox="0 0 22 20" fill="none" xmlns="http://www.w3.org/2000/svg">
<g clip-path="url(#clip0_3_21)">
<path fill-rule="evenodd" clip-rule="evenodd" d="M18.691 3.06219C16.7238 1.22454 14.1085 0.211705 11.3224 0.210888C5.58123 0.210888 0.908564 4.57122 0.905937 9.93213C0.90512 11.5293 1.32213 13.091 2.11722 14.49C2.22792 14.6847 2.26075 14.9155 2.19765 15.1305L1.20416 18.5154C1.03289 19.099 1.55829 19.6487 2.14898 19.5041L6.05504 18.5476C6.23869 18.5026 6.43189 18.5261 6.60268 18.6073C8.05719 19.2982 9.67394 19.6608 11.3172 19.6615H11.3216C17.0619 19.6615 21.7354 15.3004 21.738 9.93948C21.7398 7.34241 20.6572 4.89902 18.691 3.06219ZM11.3224 18.0193H11.3189C9.76516 18.0193 8.24206 17.6293 6.91252 16.8928L6.86627 16.8672C6.69271 16.7712 6.48935 16.744 6.29668 16.7912L4.65012 17.1942C4.05949 17.3388 3.53418 16.7891 3.70538 16.2056L4.09099 14.8913C4.15673 14.6673 4.11932 14.4256 3.98893 14.232C3.12184 12.9453 2.66464 11.4583 2.66552 9.93213C2.66727 5.47697 6.55167 1.85235 11.3268 1.85235C13.6391 1.85235 15.8129 2.69433 17.4472 4.22135C19.0816 5.74918 19.9811 7.77894 19.9802 9.93785C19.9776 14.3946 16.0941 18.0193 11.3224 18.0193ZM16.0713 11.9676C15.8112 11.8458 14.5315 11.258 14.2924 11.1771C14.0542 11.0962 13.8808 11.0553 13.7065 11.2981C13.5322 11.5409 13.0347 12.0886 12.8823 12.2513C12.7308 12.4131 12.5784 12.4336 12.3183 12.3118C12.0581 12.19 11.2191 11.9341 10.225 11.106C9.45161 10.4618 8.92873 9.66645 8.7772 9.42285C8.62568 9.17924 8.76144 9.04845 8.89107 8.92747C9.00843 8.81874 9.15119 8.64381 9.28169 8.50157C9.41307 8.36097 9.45599 8.2596 9.54357 8.09693C9.63028 7.93507 9.58737 7.79283 9.52168 7.67103C9.45599 7.55005 8.93573 6.3541 8.7194 5.86771C8.50832 5.39359 8.29374 5.45817 8.13346 5.45081C7.98193 5.44345 7.80851 5.44263 7.63422 5.44263C7.4608 5.44263 7.17878 5.50313 6.94055 5.74673C6.70232 5.99033 6.02966 6.57809 6.02966 7.77321C6.02966 8.96916 6.96244 10.1242 7.09207 10.2861C7.22169 10.4479 8.92697 12.902 11.5379 13.954C12.1589 14.2042 12.6441 14.3538 13.0216 14.4658C13.6452 14.6505 14.2127 14.6243 14.6612 14.5622C15.1613 14.4927 16.2009 13.9745 16.4181 13.4071C16.6353 12.8398 16.6353 12.3526 16.5696 12.2521C16.5048 12.1499 16.3314 12.0894 16.0713 11.9676Z" fill="white"/>
</g>
<defs>
<clipPath id="clip0_3_21">
<rect x="0.768707" y="0.210907" width="21.0204" height="19.619" fill="white"/>
</clipPath>
</defs>
</svg>
