<svg width="43" height="43" viewBox="0 0 43 43" fill="none" xmlns="http://www.w3.org/2000/svg">
<path d="M21.5 43C33.3741 43 43 33.3741 43 21.5C43 9.62588 33.3741 0 21.5 0C9.62588 0 0 9.62588 0 21.5C0 33.3741 9.62588 43 21.5 43Z" fill="#29A71A"/>
<path d="M30.9795 12.0205C28.7427 9.76125 25.7721 8.37575 22.6036 8.11387C19.4351 7.85199 16.2774 8.73098 13.6999 10.5923C11.1225 12.4536 9.29497 15.1747 8.54709 18.2647C7.79921 21.3548 8.18016 24.6104 9.62125 27.4443L8.20664 34.3121C8.19197 34.3804 8.19155 34.4511 8.20542 34.5196C8.2193 34.5881 8.24716 34.653 8.28727 34.7103C8.34603 34.7972 8.4299 34.8641 8.52769 34.9021C8.62548 34.9401 8.73253 34.9473 8.83454 34.9228L15.5655 33.3275C18.3914 34.7321 21.6241 35.0885 24.6881 34.3334C27.7522 33.5783 30.4491 31.7606 32.2988 29.2038C34.1484 26.6469 35.031 23.5168 34.7895 20.3703C34.5479 17.2238 33.1979 14.265 30.9795 12.0205ZM28.8809 28.7709C27.3331 30.3143 25.3402 31.3331 23.1828 31.6837C21.0254 32.0344 18.8123 31.6992 16.8555 30.7255L15.9173 30.2613L11.7908 31.2385L11.803 31.1872L12.6581 27.0338L12.1988 26.1274C11.199 24.1637 10.8462 21.934 11.1912 19.7576C11.5362 17.5813 12.5611 15.5699 14.1191 14.0117C16.0769 12.0545 18.7318 10.9551 21.5 10.9551C24.2682 10.9551 26.9231 12.0545 28.8809 14.0117C28.8975 14.0308 28.9155 14.0487 28.9346 14.0654C30.8681 16.0276 31.9474 18.6745 31.9374 21.4292C31.9273 24.1839 30.8286 26.8229 28.8809 28.7709Z" fill="white"/>
<path d="M28.5144 25.7242C28.0086 26.5207 27.2097 27.4955 26.2056 27.7374C24.4465 28.1625 21.7468 27.7521 18.3874 24.6199L18.3458 24.5833C15.392 21.8445 14.6249 19.565 14.8106 17.757C14.9132 16.7309 15.7683 15.8025 16.489 15.1966C16.603 15.0993 16.7381 15.0301 16.8836 14.9944C17.0291 14.9587 17.1809 14.9575 17.3269 14.991C17.4729 15.0245 17.6091 15.0917 17.7245 15.1872C17.8399 15.2827 17.9314 15.4039 17.9916 15.5411L19.0788 17.9842C19.1495 18.1427 19.1756 18.3173 19.1545 18.4895C19.1335 18.6617 19.0659 18.8248 18.9591 18.9615L18.4094 19.6749C18.2914 19.8222 18.2202 20.0015 18.205 20.1896C18.1898 20.3776 18.2312 20.566 18.3239 20.7304C18.6317 21.2703 19.3695 22.0644 20.188 22.7998C21.1066 23.6304 22.1254 24.3903 22.7704 24.6492C22.943 24.7197 23.1328 24.737 23.3152 24.6986C23.4977 24.6603 23.6645 24.5682 23.7941 24.4342L24.4318 23.7917C24.5549 23.6704 24.7079 23.5838 24.8753 23.5409C25.0426 23.498 25.2184 23.5002 25.3847 23.5474L27.9671 24.2803C28.1096 24.324 28.2401 24.3997 28.3488 24.5016C28.4575 24.6035 28.5415 24.7289 28.5943 24.8683C28.6471 25.0076 28.6674 25.1572 28.6535 25.3055C28.6397 25.4539 28.5921 25.5971 28.5144 25.7242Z" fill="white"/>
</svg>
