<svg width="26" height="19" viewBox="0 0 26 19" fill="none" xmlns="http://www.w3.org/2000/svg">
<path fill-rule="evenodd" clip-rule="evenodd" d="M10.385 12.6103V5.22809C12.9748 6.46126 14.9807 7.65252 17.353 8.93686C15.3963 10.0349 12.9748 11.2669 10.385 12.6103ZM24.8183 1.55658C24.3716 0.960986 23.6101 0.497367 22.7995 0.343877C20.4168 -0.113974 5.55228 -0.115277 3.1709 0.343877C2.52084 0.46719 1.94199 0.765254 1.44473 1.22835C-0.650471 3.19617 0.00606603 13.749 0.511091 15.4584C0.723459 16.1983 0.997997 16.7319 1.34374 17.0821C1.7892 17.5452 2.39911 17.8641 3.09967 18.0071C5.06149 18.4177 15.1684 18.6473 22.7581 18.0688C23.4573 17.9454 24.0763 17.6163 24.5645 17.1335C26.5017 15.1736 26.3696 4.02816 24.8183 1.55658Z" fill="black"/>
</svg>
